<svg width="1350" height="1698" viewBox="0 0 1350 1698" fill="none" xmlns="http://www.w3.org/2000/svg">
<g filter="url(#filter0_d)">
<path d="M3.05139e-05 29.2973C383.474 -80.2053 711.378 245.139 1350 7.58122C1350 98.5328 1350 1202.13 1350 1608.46C1033.2 1691.27 102.5 1720.49 3.05139e-05 1621.13C-3.81424e-05 1515.91 3.05139e-05 87.9226 3.05139e-05 29.2973Z" fill="#942FE5"/>
</g>
<g filter="url(#filter1_d)">
<path d="M0.000153065 39.4817C301 -33.388 811.158 246.031 1350 8.70483C1350 109.185 1351 1285.53 1351 1580.18C1013 1669.8 72 1710.08 0 1614.13C3.05176e-05 1519.53 0.000167847 198.349 0.000153065 39.4817Z" fill="url(#paint0_radial)"/>
</g>
<defs>
<filter id="filter0_d" x="-10" y="0" width="1370" height="1698" filterUnits="userSpaceOnUse" color-interpolation-filters="sRGB">
<feFlood flood-opacity="0" result="BackgroundImageFix"/>
<feColorMatrix in="SourceAlpha" type="matrix" values="0 0 0 0 0 0 0 0 0 0 0 0 0 0 0 0 0 0 127 0"/>
<feOffset dy="4"/>
<feGaussianBlur stdDeviation="5"/>
<feColorMatrix type="matrix" values="0 0 0 0 0 0 0 0 0 0 0 0 0 0 0 0 0 0 0.25 0"/>
<feBlend mode="normal" in2="BackgroundImageFix" result="effect1_dropShadow"/>
<feBlend mode="normal" in="SourceGraphic" in2="effect1_dropShadow" result="shape"/>
</filter>
<filter id="filter1_d" x="-4" y="8.70483" width="1359" height="1668.74" filterUnits="userSpaceOnUse" color-interpolation-filters="sRGB">
<feFlood flood-opacity="0" result="BackgroundImageFix"/>
<feColorMatrix in="SourceAlpha" type="matrix" values="0 0 0 0 0 0 0 0 0 0 0 0 0 0 0 0 0 0 127 0"/>
<feOffset dy="4"/>
<feGaussianBlur stdDeviation="2"/>
<feColorMatrix type="matrix" values="0 0 0 0 0 0 0 0 0 0 0 0 0 0 0 0 0 0 0.25 0"/>
<feBlend mode="normal" in2="BackgroundImageFix" result="effect1_dropShadow"/>
<feBlend mode="normal" in="SourceGraphic" in2="effect1_dropShadow" result="shape"/>
</filter>
<radialGradient id="paint0_radial" cx="0" cy="0" r="1" gradientUnits="userSpaceOnUse" gradientTransform="translate(138.25 582.824) rotate(38.4862) scale(2339.11 1739.16)">
<stop stop-color="#414141"/>
<stop offset="1"/>
</radialGradient>
</defs>
</svg>
