<svg fill="none" height="1698" viewBox="0 0 1350 1698" width="1350" xmlns="http://www.w3.org/2000/svg" xmlns:xlink="http://www.w3.org/1999/xlink"><filter id="a" color-interpolation-filters="sRGB" filterUnits="userSpaceOnUse" height="1698" width="1370" x="-10" y="0"><feFlood flood-opacity="0" result="BackgroundImageFix"/><feColorMatrix in="SourceAlpha" type="matrix" values="0 0 0 0 0 0 0 0 0 0 0 0 0 0 0 0 0 0 127 0"/><feOffset dy="4"/><feGaussianBlur stdDeviation="5"/><feColorMatrix type="matrix" values="0 0 0 0 0 0 0 0 0 0 0 0 0 0 0 0 0 0 0.25 0"/><feBlend in2="BackgroundImageFix" mode="normal" result="effect1_dropShadow"/><feBlend in="SourceGraphic" in2="effect1_dropShadow" mode="normal" result="shape"/></filter><filter id="b" color-interpolation-filters="sRGB" filterUnits="userSpaceOnUse" height="1668.74" width="1359" x="-4" y="8.70483"><feFlood flood-opacity="0" result="BackgroundImageFix"/><feColorMatrix in="SourceAlpha" type="matrix" values="0 0 0 0 0 0 0 0 0 0 0 0 0 0 0 0 0 0 127 0"/><feOffset dy="4"/><feGaussianBlur stdDeviation="2"/><feColorMatrix type="matrix" values="0 0 0 0 0 0 0 0 0 0 0 0 0 0 0 0 0 0 0.25 0"/><feBlend in2="BackgroundImageFix" mode="normal" result="effect1_dropShadow"/><feBlend in="SourceGraphic" in2="effect1_dropShadow" mode="normal" result="shape"/></filter><radialGradient id="c" cx="0" cy="0" gradientTransform="matrix(1830.95722955 1455.68925793 -1082.32470034 1361.34152534 138.25 582.824)" gradientUnits="userSpaceOnUse" r="1"><stop offset="0" stop-color="#414141"/><stop offset="1"/></radialGradient><g filter="url(#a)"><path d="m.00003051 29.2973c383.47396949-109.5026 711.37796949 215.8417 1349.99996949-21.71608v1600.87878c-316.8 82.81-1247.5 112.03-1349.99996949 12.67-.00006865-105.22 0-1533.2074 0-1591.8327z" fill="#942fe5"/></g><g filter="url(#b)"><path d="m.00015307 39.4817c300.99984693-72.8697 811.15784693 206.5493 1349.99984693-30.77687 0 100.48017 1 1276.82517 1 1571.47517-338 89.62-1279 129.9-1351 33.95.00003052-94.6.00016785-1415.781.00015307-1574.6483z" fill="url(#c)"/></g></svg>