<svg width="80" height="103" viewBox="0 0 80 103" fill="none" xmlns="http://www.w3.org/2000/svg">
<path d="M44.6875 0.0234375C25.4688 0.0234375 9.88282 15.668 9.88282 34.8281V47.3086C9.88282 61.0781 20.8398 72.3867 34.6094 72.9726V74.5547L7.71484 82.3476C3.67187 83.5781 0.976562 87.2109 0.976562 91.4297V101.977H3.96485V91.4883C3.96485 88.6172 5.83985 86.0976 8.53516 85.2773L37.5391 76.8398V69.1055C40 70.2187 42.7539 70.8633 45.625 70.8633C48.4375 70.8633 51.1914 70.2773 53.7109 69.1055V101.977H56.6992V67.4062V65.3555V46.957V46.8398C54.5312 35.4726 44.5703 27.2695 33.0273 27.2695H26.1133V51.4102C26.1133 58.0313 29.4531 63.8906 34.4922 67.4648V70.1016C22.4219 69.457 12.7539 59.5547 12.7539 47.4258V34.9453C12.7539 17.4258 27.0508 3.12891 44.5703 3.12891C62.0898 3.12891 76.3867 17.4258 76.3867 34.9453V99.1055H76.2695V102.094H76.3867H79.3164H79.4336V34.8281C79.4922 15.668 63.9062 0.0234375 44.6875 0.0234375ZM29.2188 51.3516V30.2578H33.1445C43.2227 30.2578 51.8945 37.4063 53.8281 47.25V65.3555V65.707C51.3672 67.1133 48.5547 67.8164 45.7422 67.8164C36.6016 67.875 29.2188 60.4336 29.2188 51.3516Z" fill="black"/>
<path d="M72.6367 44.5547H69.8828V96.5273H72.6367V44.5547Z" fill="black"/>
<path d="M64.1406 55.3945H61.3867V96.1172H64.1406V55.3945Z" fill="black"/>
</svg>
