<svg width="690" height="2395" viewBox="0 0 690 2395" fill="none" xmlns="http://www.w3.org/2000/svg">
<mask id="mask0" mask-type="alpha" maskUnits="userSpaceOnUse" x="0" y="0" width="690" height="2395">
<rect width="690" height="2395" fill="#C4C4C4"/>
</mask>
<g mask="url(#mask0)">
<g filter="url(#filter0_d)">
<path d="M5.96613e-05 46.3281C236.441 65.4644 602.601 68.9895 690.001 46.3286C690.001 116.829 690.001 2261.05 690.001 2344.64C510.601 2369.82 98.4408 2364.79 0.000848338 2338.6C0.000736034 2266.59 -0.000249182 504.078 5.96613e-05 46.3281Z" fill="#942FE5"/>
</g>
<g filter="url(#filter1_d)">
<path d="M0.000466363 362.574C0.000172269 197.401 0.000368973 146.114 0.000368973 56.4009C99.3604 66.4719 512.44 99.2043 690 57.4075C690 195.891 690 2267.09 690 2339.1C679.88 2341.12 267.72 2371.33 0.000449219 2326.01C0.000449219 2211.15 0.000481278 2060.12 8.82118e-05 1969.48C-0.000304855 1878.84 0.000760456 527.746 0.000466363 362.574Z" fill="url(#paint0_radial)"/>
</g>
</g>
<defs>
<filter id="filter0_d" x="-10" y="40.3281" width="710.001" height="2334.78" filterUnits="userSpaceOnUse" color-interpolation-filters="sRGB">
<feFlood flood-opacity="0" result="BackgroundImageFix"/>
<feColorMatrix in="SourceAlpha" type="matrix" values="0 0 0 0 0 0 0 0 0 0 0 0 0 0 0 0 0 0 127 0"/>
<feOffset dy="4"/>
<feGaussianBlur stdDeviation="5"/>
<feColorMatrix type="matrix" values="0 0 0 0 0 0 0 0 0 0 0 0 0 0 0 0 0 0 0.25 0"/>
<feBlend mode="normal" in2="BackgroundImageFix" result="effect1_dropShadow"/>
<feBlend mode="normal" in="SourceGraphic" in2="effect1_dropShadow" result="shape"/>
</filter>
<filter id="filter1_d" x="-4" y="56.4009" width="698" height="2302.43" filterUnits="userSpaceOnUse" color-interpolation-filters="sRGB">
<feFlood flood-opacity="0" result="BackgroundImageFix"/>
<feColorMatrix in="SourceAlpha" type="matrix" values="0 0 0 0 0 0 0 0 0 0 0 0 0 0 0 0 0 0 127 0"/>
<feOffset dy="4"/>
<feGaussianBlur stdDeviation="2"/>
<feColorMatrix type="matrix" values="0 0 0 0 0 0 0 0 0 0 0 0 0 0 0 0 0 0 0.25 0"/>
<feBlend mode="normal" in2="BackgroundImageFix" result="effect1_dropShadow"/>
<feBlend mode="normal" in="SourceGraphic" in2="effect1_dropShadow" result="shape"/>
</filter>
<radialGradient id="paint0_radial" cx="0" cy="0" r="1" gradientUnits="userSpaceOnUse" gradientTransform="translate(121.089 818.498) rotate(32.4224) scale(3917.03 2705.8)">
<stop stop-color="#414141"/>
<stop offset="1"/>
</radialGradient>
</defs>
</svg>
