<svg fill="none" height="2395" width="375" preserveAspectRatio="none slice" xmlns="http://www.w3.org/2000/svg" xmlns:xlink="http://www.w3.org/1999/xlink"><filter id="a" color-interpolation-filters="sRGB" filterUnits="userSpaceOnUse" height="2334.78" width="395" x="-10" y="40.3281"><feFlood flood-opacity="0" result="BackgroundImageFix"/><feColorMatrix in="SourceAlpha" type="matrix" values="0 0 0 0 0 0 0 0 0 0 0 0 0 0 0 0 0 0 127 0"/><feOffset dy="4"/><feGaussianBlur stdDeviation="5"/><feColorMatrix type="matrix" values="0 0 0 0 0 0 0 0 0 0 0 0 0 0 0 0 0 0 0.25 0"/><feBlend in2="BackgroundImageFix" mode="normal" result="effect1_dropShadow"/><feBlend in="SourceGraphic" in2="effect1_dropShadow" mode="normal" result="shape"/></filter><filter id="b" color-interpolation-filters="sRGB" filterUnits="userSpaceOnUse" height="2302.43" width="383" x="-4" y="56.4009"><feFlood flood-opacity="0" result="BackgroundImageFix"/><feColorMatrix in="SourceAlpha" type="matrix" values="0 0 0 0 0 0 0 0 0 0 0 0 0 0 0 0 0 0 127 0"/><feOffset dy="4"/><feGaussianBlur stdDeviation="2"/><feColorMatrix type="matrix" values="0 0 0 0 0 0 0 0 0 0 0 0 0 0 0 0 0 0 0.25 0"/><feBlend in2="BackgroundImageFix" mode="normal" result="effect1_dropShadow"/><feBlend in="SourceGraphic" in2="effect1_dropShadow" mode="normal" result="shape"/></filter><radialGradient id="c" cx="0" cy="0" gradientTransform="matrix(1796.9803353 2100.14593651 -1583.45415908 1354.87536187 65.809 818.498)" gradientUnits="userSpaceOnUse" r="1"><stop offset="0" stop-color="#414141"/><stop offset="1"/></radialGradient><mask id="d" height="2395" maskUnits="userSpaceOnUse" width="375" x="0" y="0"><path d="m0 0h375v2395h-375z" fill="#c4c4c4"/></mask><g mask="url(#d)"><g filter="url(#a)"><path d="m.00003242 46.3281c128.49996758 19.1363 327.49996758 22.6614 374.99996758.0005v2298.3114c-97.5 25.18-321.4996 20.15-374.99953895-6.04-.00006103-72.01-.00059648-1834.522-.00042863-2292.2719z" fill="#942fe5"/></g><g filter="url(#b)"><path d="m.00025346 362.574c-.00015984-165.173-.00005293-216.46-.00005293-306.1731 53.99999947 10.071 278.49979947 42.8034 374.99979947 1.0066v2281.6925c-5.5 2.02-229.5 32.23-374.99975586-13.09 0-114.86.00001742-265.89-.0001962-356.53s.00036535-1441.734.00020552-1606.906z" fill="url(#c)"/></g></g></svg>