<svg fill="none" height="2336" preserveAspectRatio="none" viewBox="0 0 710 2336" width="710" xmlns="http://www.w3.org/2000/svg" xmlns:xlink="http://www.w3.org/1999/xlink"><filter id="a" color-interpolation-filters="sRGB" filterUnits="userSpaceOnUse" height="2334.78" width="710.001" x="0" y=".328125"><feFlood flood-opacity="0" result="BackgroundImageFix"/><feColorMatrix in="SourceAlpha" type="matrix" values="0 0 0 0 0 0 0 0 0 0 0 0 0 0 0 0 0 0 127 0"/><feOffset dy="4"/><feGaussianBlur stdDeviation="5"/><feColorMatrix type="matrix" values="0 0 0 0 0 0 0 0 0 0 0 0 0 0 0 0 0 0 0.25 0"/><feBlend in2="BackgroundImageFix" mode="normal" result="effect1_dropShadow"/><feBlend in="SourceGraphic" in2="effect1_dropShadow" mode="normal" result="shape"/></filter><filter id="b" color-interpolation-filters="sRGB" filterUnits="userSpaceOnUse" height="2302.43" width="698" x="6" y="16.4009"><feFlood flood-opacity="0" result="BackgroundImageFix"/><feColorMatrix in="SourceAlpha" type="matrix" values="0 0 0 0 0 0 0 0 0 0 0 0 0 0 0 0 0 0 127 0"/><feOffset dy="4"/><feGaussianBlur stdDeviation="2"/><feColorMatrix type="matrix" values="0 0 0 0 0 0 0 0 0 0 0 0 0 0 0 0 0 0 0.25 0"/><feBlend in2="BackgroundImageFix" mode="normal" result="effect1_dropShadow"/><feBlend in="SourceGraphic" in2="effect1_dropShadow" mode="normal" result="shape"/></filter><radialGradient id="c" cx="0" cy="0" gradientTransform="matrix(3306.43700816 2100.14245516 -1450.73319713 2284.0155058 131.089 778.498)" gradientUnits="userSpaceOnUse" r="1"><stop offset="0" stop-color="#414141"/><stop offset="1"/></radialGradient><g filter="url(#a)"><path d="m10.0001 6.32812c236.4409 19.13628 602.6009 22.66138 690.0009.00047v2298.31141c-179.4 25.18-591.56 20.15-690.0002-6.04-.0001-72.01-.00105-1834.522-.0007-2292.27188z" fill="#942fe5"/></g><g filter="url(#b)"><path d="m10.0005 322.574c-.0003-165.173-.0001-216.46-.0001-306.1731 99.3596 10.071 512.4396 42.8034 689.9996 1.0066v2281.6925c-10.12 2.02-422.28 32.23-689.9996-13.09 0-114.86.0001-265.89-.0003-356.53s.0007-1441.734.0004-1606.906z" fill="url(#c)"/></g></svg>