<svg width="375" height="2395"  fill="none" xmlns="http://www.w3.org/2000/svg">
<mask id="mask0" mask-type="alpha" maskUnits="userSpaceOnUse" x="0" y="0" width="375" height="2395">
<rect width="375" height="2395" fill="#C4C4C4"/>
</mask>
<g mask="url(#mask0)">
<g filter="url(#filter0_d)">
<path d="M3.24246e-05 46.3281C128.5 65.4644 327.5 68.9895 375 46.3286C375 116.829 375 2261.05 375 2344.64C277.5 2369.82 53.5004 2364.79 0.000461053 2338.6C0.000400018 2266.59 -0.000135425 504.078 3.24246e-05 46.3281Z" fill="#942FE5"/>
</g>
<g filter="url(#filter1_d)">
<path d="M0.000253458 362.574C9.36247e-05 197.401 0.000200529 146.114 0.000200529 56.4009C54.0002 66.4719 278.5 99.2043 375 57.4075C375 195.891 375 2267.09 375 2339.1C369.5 2341.12 145.5 2371.33 0.000244141 2326.01C0.000244141 2211.15 0.000261564 2060.12 4.79412e-05 1969.48C-0.000165682 1878.84 0.000413291 527.746 0.000253458 362.574Z" fill="url(#paint0_radial)"/>
</g>
</g>
<defs>
<filter id="filter0_d" x="-10" y="40.3281" width="395" height="2334.78" filterUnits="userSpaceOnUse" color-interpolation-filters="sRGB">
<feFlood flood-opacity="0" result="BackgroundImageFix"/>
<feColorMatrix in="SourceAlpha" type="matrix" values="0 0 0 0 0 0 0 0 0 0 0 0 0 0 0 0 0 0 127 0"/>
<feOffset dy="4"/>
<feGaussianBlur stdDeviation="5"/>
<feColorMatrix type="matrix" values="0 0 0 0 0 0 0 0 0 0 0 0 0 0 0 0 0 0 0.25 0"/>
<feBlend mode="normal" in2="BackgroundImageFix" result="effect1_dropShadow"/>
<feBlend mode="normal" in="SourceGraphic" in2="effect1_dropShadow" result="shape"/>
</filter>
<filter id="filter1_d" x="-4" y="56.4009" width="383" height="2302.43" filterUnits="userSpaceOnUse" color-interpolation-filters="sRGB">
<feFlood flood-opacity="0" result="BackgroundImageFix"/>
<feColorMatrix in="SourceAlpha" type="matrix" values="0 0 0 0 0 0 0 0 0 0 0 0 0 0 0 0 0 0 127 0"/>
<feOffset dy="4"/>
<feGaussianBlur stdDeviation="2"/>
<feColorMatrix type="matrix" values="0 0 0 0 0 0 0 0 0 0 0 0 0 0 0 0 0 0 0.25 0"/>
<feBlend mode="normal" in2="BackgroundImageFix" result="effect1_dropShadow"/>
<feBlend mode="normal" in="SourceGraphic" in2="effect1_dropShadow" result="shape"/>
</filter>
<radialGradient id="paint0_radial" cx="0" cy="0" r="1" gradientUnits="userSpaceOnUse" gradientTransform="translate(65.809 818.498) rotate(49.4482) scale(2764.01 2083.99)">
<stop stop-color="#414141"/>
<stop offset="1"/>
</radialGradient>
</defs>
</svg>
