<svg fill="none" height="2395" viewBox="0 0 690 2395" width="690" xmlns="http://www.w3.org/2000/svg" xmlns:xlink="http://www.w3.org/1999/xlink"><filter id="a" color-interpolation-filters="sRGB" filterUnits="userSpaceOnUse" height="2334.78" width="710.001" x="-10" y="40.3281"><feFlood flood-opacity="0" result="BackgroundImageFix"/><feColorMatrix in="SourceAlpha" type="matrix" values="0 0 0 0 0 0 0 0 0 0 0 0 0 0 0 0 0 0 127 0"/><feOffset dy="4"/><feGaussianBlur stdDeviation="5"/><feColorMatrix type="matrix" values="0 0 0 0 0 0 0 0 0 0 0 0 0 0 0 0 0 0 0.25 0"/><feBlend in2="BackgroundImageFix" mode="normal" result="effect1_dropShadow"/><feBlend in="SourceGraphic" in2="effect1_dropShadow" mode="normal" result="shape"/></filter><filter id="b" color-interpolation-filters="sRGB" filterUnits="userSpaceOnUse" height="2302.43" width="698" x="-4" y="56.4009"><feFlood flood-opacity="0" result="BackgroundImageFix"/><feColorMatrix in="SourceAlpha" type="matrix" values="0 0 0 0 0 0 0 0 0 0 0 0 0 0 0 0 0 0 127 0"/><feOffset dy="4"/><feGaussianBlur stdDeviation="2"/><feColorMatrix type="matrix" values="0 0 0 0 0 0 0 0 0 0 0 0 0 0 0 0 0 0 0.25 0"/><feBlend in2="BackgroundImageFix" mode="normal" result="effect1_dropShadow"/><feBlend in="SourceGraphic" in2="effect1_dropShadow" mode="normal" result="shape"/></filter><radialGradient id="c" cx="0" cy="0" gradientTransform="matrix(3306.43700816 2100.14245516 -1450.73319713 2284.0155058 121.089 818.498)" gradientUnits="userSpaceOnUse" r="1"><stop offset="0" stop-color="#414141"/><stop offset="1"/></radialGradient><mask id="d" height="2395" maskUnits="userSpaceOnUse" width="690" x="0" y="0"><path d="m0 0h690v2395h-690z" fill="#c4c4c4"/></mask><g mask="url(#d)"><g filter="url(#a)"><path d="m.00005966 46.3281c236.44094034 19.1363 602.60094034 22.6614 690.00094034.0005v2298.3114c-179.4 25.18-591.5602 20.15-690.00015166-6.04-.00011231-72.01-.00109752-1834.522-.00078868-2292.2719z" fill="#942fe5"/></g><g filter="url(#b)"><path d="m.00046636 362.574c-.00029409-165.173-.00009739-216.46-.00009739-306.1731 99.36003103 10.071 512.43963103 42.8034 689.99963103 1.0066v2281.6925c-10.12 2.02-422.28 32.23-689.99955078-13.09 0-114.86.00003206-265.89-.00036101-356.53-.00039306-90.64.00067225-1441.734.00037815-1606.906z" fill="url(#c)"/></g></g></svg>