<svg width="1370" height="1827" preserveAspectRatio="none slice" viewBox="0 0 1370 1827" fill="none" xmlns="http://www.w3.org/2000/svg">
<g filter="url(#filter0_d)">
<path d="M10 171.527C10 147.329 10 113.137 10 97.8117C289.082 -171.032 907.359 256.952 1360 50.16C1360 89.9914 1360 168.37 1360 232.02C1360 295.67 1360 1443.47 1360 1488.19C1360 1532.9 1360 1574.98 1360 1637.19C899.016 1870.31 233.5 1844.62 10.0001 1711.75C10.0001 1458.2 10 329.336 10 171.527Z" fill="#942FE5"/>
</g>
<g filter="url(#filter1_d)">
<path d="M10 228.864C10 188.36 10 126.288 10 93.674C318.068 -153.728 954.887 294.572 1360 92.0959C1360 291.988 1361 1363.52 1361 1407.18C1361 1450.84 1360 1574.98 1360 1634.31C911.64 1857.98 250 1802.02 10 1684.4C10 1485.56 9.99999 269.369 10 228.864Z" fill="url(#paint0_radial)"/>
</g>
<defs>
<filter id="filter0_d" x="0" y="0" width="1370" height="1826.34" filterUnits="userSpaceOnUse" color-interpolation-filters="sRGB">
<feFlood flood-opacity="0" result="BackgroundImageFix"/>
<feColorMatrix in="SourceAlpha" type="matrix" values="0 0 0 0 0 0 0 0 0 0 0 0 0 0 0 0 0 0 127 0"/>
<feOffset dy="4"/>
<feGaussianBlur stdDeviation="5"/>
<feColorMatrix type="matrix" values="0 0 0 0 0 0 0 0 0 0 0 0 0 0 0 0 0 0 0.25 0"/>
<feBlend mode="normal" in2="BackgroundImageFix" result="effect1_dropShadow"/>
<feBlend mode="normal" in="SourceGraphic" in2="effect1_dropShadow" result="shape"/>
</filter>
<filter id="filter1_d" x="6" y="16.9883" width="1359" height="1778.36" filterUnits="userSpaceOnUse" color-interpolation-filters="sRGB">
<feFlood flood-opacity="0" result="BackgroundImageFix"/>
<feColorMatrix in="SourceAlpha" type="matrix" values="0 0 0 0 0 0 0 0 0 0 0 0 0 0 0 0 0 0 127 0"/>
<feOffset dy="4"/>
<feGaussianBlur stdDeviation="2"/>
<feColorMatrix type="matrix" values="0 0 0 0 0 0 0 0 0 0 0 0 0 0 0 0 0 0 0.25 0"/>
<feBlend mode="normal" in2="BackgroundImageFix" result="effect1_dropShadow"/>
<feBlend mode="normal" in="SourceGraphic" in2="effect1_dropShadow" result="shape"/>
</filter>
<radialGradient id="paint0_radial" cx="0" cy="0" r="1" gradientUnits="userSpaceOnUse" gradientTransform="translate(425.075 591.602) rotate(43.5399) scale(2353.94 1794.09)">
<stop stop-color="#414141"/>
<stop offset="1"/>
</radialGradient>
</defs>
</svg>
