<svg fill="none" height="30" viewBox="0 0 31 30" width="31" xmlns="http://www.w3.org/2000/svg" xmlns:xlink="http://www.w3.org/1999/xlink"><clipPath id="a"><path d="m0 .166016h31v29h-31z"/></clipPath><g clip-path="url(#a)" fill="#040404"><path d="m21.7649.166016h-12.52983c-5.09224 0-9.23507 3.875554-9.23507 8.639254v11.72153c0 4.7637 4.14283 8.6392 9.23507 8.6392h12.52983c5.0923 0 9.2351-3.8755 9.2351-8.6392v-11.72153c-.0001-4.7637-4.1429-8.639254-9.2351-8.639254zm6.1165 20.360784c0 3.16-2.7385 5.7218-6.1165 5.7218h-12.52983c-3.37801 0-6.11647-2.5618-6.11647-5.7218v-11.72153c0-3.16012 2.73846-5.72186 6.11647-5.72186h12.52983c3.378 0 6.1165 2.56174 6.1165 5.72186z"/><path d="m15.5001 7.16553c-4.4209 0-8.01768 3.36467-8.01768 7.50037s3.59678 7.5004 8.01768 7.5004c4.421 0 8.0177-3.3646 8.0177-7.5004 0-4.1357-3.5967-7.50037-8.0177-7.50037zm0 12.08347c-2.7057 0-4.8991-2.0519-4.8991-4.583 0-2.5312 2.1935-4.5831 4.8991-4.5831 2.7057 0 4.8991 2.0519 4.8991 4.5831 0 2.5311-2.1934 4.583-4.8991 4.583z"/><path d="m23.5333 9.01932c1.061 0 1.9212-.80466 1.9212-1.79726s-.8602-1.79726-1.9212-1.79726c-1.0611 0-1.9212.80466-1.9212 1.79726s.8601 1.79726 1.9212 1.79726z"/></g></svg>