<svg fill="none" height="70" viewBox="0 0 70 70" width="70" xmlns="http://www.w3.org/2000/svg"><g fill="#942fe5"><path d="m61.251 12.7148c.7552 0 1.3673-.612 1.3673-1.3671v-7.24614c0-2.2616-1.84-4.10156-4.1017-4.10156h-54.41497c-2.26164 0-4.10163 1.83996-4.10163 4.10156v61.79684c0 2.2616 1.83999 4.1016 4.10163 4.1016h54.41497c2.2617 0 4.1017-1.84 4.1017-4.1016v-3.8281c0-.7551-.6121-1.3672-1.3673-1.3672-.7551 0-1.3672.6121-1.3672 1.3672v3.8281c0 .7539-.6133 1.3672-1.3672 1.3672h-54.41497c-.75388 0-1.36721-.6133-1.36721-1.3672v-61.79684c0-.75386.61333-1.36718 1.36721-1.36718h54.41497c.7539 0 1.3672.61332 1.3672 1.36718v7.24614c0 .7551.6121 1.3671 1.3672 1.3671z"/><path d="m54.6892 6.5625h-46.76025c-.75511 0-1.36721.61209-1.36721 1.36719v28.57421c0 .7551.6121 1.3672 1.36721 1.3672s1.36721-.6121 1.36721-1.3672v-27.20702h44.02584v2.18752c0 .7551.6122 1.3672 1.3672 1.3672.7551 0 1.3672-.6121 1.3672-1.3672v-3.55471c0-.7551-.6121-1.36719-1.3672-1.36719z"/><path d="m8.89503 40.5959c-.2543-.2543-.60567-.4006-.96662-.4006-.35957 0-.71231.1463-.96661.4006-.25431.2543-.4006.607-.4006.9666s.14629.7123.4006.9666c.2543.2543.60704.4006.96661.4006.36095 0 .71232-.1463.96662-.4006.25567-.2543.40059-.607.40059-.9666s-.14492-.7123-.40059-.9666z"/><path d="m54.6892 57.6953c-.7551 0-1.3672.6121-1.3672 1.3672v1.6406h-44.02584v-13.8769c0-.7551-.6121-1.3672-1.36721-1.3672s-1.36721.6121-1.36721 1.3672v15.2441c0 .7551.6121 1.3672 1.36721 1.3672h46.76025c.7551 0 1.3672-.6121 1.3672-1.3672v-3.0078c0-.7551-.6121-1.3672-1.3672-1.3672z"/><path d="m42.3705 48.3076c-.5339-.534-1.3995-.534-1.9335-.0001l-2.7022 2.7022-1.6796-1.6797c-1.0606-1.0604-2.7858-1.0604-3.8464 0l-1.0929 1.093c-.5339.5338-.5339 1.3995 0 1.9336.5339.5338 1.3996.5338 1.9336 0l1.0826-1.0826 1.6796 1.6798c.5302.5301 1.2266.7952 1.9231.7952s1.3929-.2651 1.9231-.7952l2.7126-2.7126c.5339-.5338.5339-1.3995 0-1.9336z"/><path d="m69.3716 28.6812c.6025-.94.7824-2.0977.4934-3.1762-.289-1.0784-1.0235-1.991-2.0154-2.5037-.4301-.2223-.6934-.6784-.6709-1.162.0518-1.1153-.3712-2.2077-1.1606-2.9972s-1.8816-1.2131-2.9973-1.1607c-.486.0236-.9397-.2408-1.162-.6708-.5127-.9918-1.4254-1.7264-2.5038-2.0154-1.0789-.2892-2.2362-.1091-3.176.4934-.4076.2614-.9343.2613-1.3417 0-.9399-.6026-2.0974-.7824-3.176-.4934-1.0785.289-1.9911 1.0236-2.5038 2.0154-.2223.4301-.6796.6927-1.162.6708-1.1158-.052-2.2078.3712-2.9972 1.1607-.7895.7895-1.2126 1.8819-1.1607 2.9971.0225.4837-.241.9398-.6709 1.1621-.9918.5127-1.7264 1.4252-2.0154 2.5037-.138.5145-.1679 1.047-.0972 1.5653h-23.8579c-.7551 0-1.3672.6121-1.3672 1.3672s.6121 1.3672 1.3672 1.3672h24.5564c-.0294.0751-.0635.1488-.1081.2182-.6025.94-.7824 2.0977-.4934 3.1761.0397.1481.0885.2927.1445.4338h-24.0998c-.7551 0-1.3672.6121-1.3672 1.3672s.6121 1.3672 1.3672 1.3672h26.5601c.0595.1563.0893.3249.0812.4975-.0518 1.1154.3712 2.2078 1.1608 2.9973.7894.7894 1.8814 1.2133 2.9972 1.1606.483-.0236.9397.2408 1.162.6709.1642.3177.37.6085.6085.8673v12.7686c0 .5524.3324 1.0504.8424 1.2625.5098.212 1.0974.0964 1.4891-.2933l3.4108-3.3929 3.4108 3.3929c.2614.2601.6099.398.9646.398.1766 0 .3549-.0343.5246-.1049.5099-.212.8423-.7101.8423-1.2624v-12.7686c.2386-.2587.4444-.5496.6086-.8673.2223-.4302.6789-.6929 1.162-.6709 1.1164.0528 2.2077-.3711 2.9972-1.1606.7895-.7896 1.2125-1.882 1.1607-2.9973-.0225-.4836.2409-.9397.6709-1.162.9918-.5127 1.7264-1.4251 2.0154-2.5037s.1091-2.2362-.4934-3.1763c-.2614-.4072-.2614-.9339 0-1.3414zm-10.8558 23.3597-2.0437-2.033c-.5334-.5306-1.3951-.5306-1.9285 0l-2.0435 2.033v-8.202c.818.0385 1.6377-.1753 2.3371-.6234.4075-.2615.9342-.2613 1.3416 0 .6458.4139 1.3942.6285 2.1493.6285.0626 0 .1251-.0032.1877-.0062zm8.7079-19.5495c-.0916.3419-.3154.6199-.6299.7824-1.3759.7114-2.2187 2.1707-2.1466 3.7181.0165.3537-.1124.6863-.3628.9368-.2503.2503-.5829.3788-.9366.3627-1.5483-.0717-3.0068.7705-3.7182 2.1466-.1625.3146-.4405.5383-.7826.6299-.3418.0914-.6945.0369-.9924-.1542-.6522-.4181-1.3994-.627-2.1468-.627-.7472 0-1.4946.209-2.1467.627-.298.1909-.6506.2456-.9926.1542-.342-.0916-.6199-.3154-.7826-.6299-.7113-1.3759-2.1696-2.2189-3.7181-2.1466-.3529.0163-.6863-.1124-.9367-.3627-.2504-.2505-.3792-.5831-.3627-.937.0507-1.0921-.3557-2.1391-1.0821-2.9114-.0214-.0234-.0431-.0463-.0661-.0682-.2884-.2924-.6227-.544-.9984-.7383-.3145-.1625-.5382-.4404-.6298-.7824-.0916-.3421-.0369-.6947.1542-.9926.8361-1.304.8361-2.9892 0-4.2932-.191-.2981-.2458-.6507-.1542-.9928.0916-.3419.3154-.6198.6299-.7824 1.376-.7114 2.2186-2.1707 2.1467-3.7181-.0166-.3537.1123-.6863.3627-.9368.2503-.2504.5836-.379.9367-.3627 1.5483.0718 3.0069-.7705 3.7181-2.1466.1625-.3146.4405-.5383.7826-.6299.3419-.0914.6945-.0369.9924.1543 1.3042.8361 2.9896.8361 4.2934 0 .298-.191.6505-.246.9925-.1543.3421.0916.6199.3154.7826.6299.7114 1.3759 2.1706 2.2188 3.7182 2.1466.3538-.0161.6863.1123.9366.3627.2505.2505.3793.5831.3628.9368-.072 1.5473.7705 3.0067 2.1468 3.7181.3144.1626.5381.4404.6297.7824.0916.3421.0369.6947-.1542.9926-.8361 1.304-.8361 2.9892 0 4.2933.1911.298.2459.6506.1542.9927z"/><path d="m62.01 25.6328c-.5339-.5339-1.3997-.5339-1.9335 0l-4.538 4.538-1.8065-1.8065c-.5339-.5338-1.3996-.5338-1.9336 0-.5339.5339-.5339 1.3996 0 1.9337l2.7733 2.7732c.267.267.6168.4004.9667.4004s.6999-.1334.9668-.4004l5.5048-5.5048c.5339-.5338.5339-1.3995 0-1.9336z"/><path d="m16.6895 16.5334c-.2543-.2543-.6071-.4006-.9666-.4006-.3596 0-.7124.1463-.9667.4006s-.4006.607-.4006.9666.1463.7123.4006.9666.6071.4006.9667.4006c.3595 0 .7123-.1463.9666-.4006s.4006-.607.4006-.9666-.1463-.7123-.4006-.9666z"/><path d="m27.4799 16.1328h-6.6538c-.7551 0-1.3672.6121-1.3672 1.3672s.6121 1.3672 1.3672 1.3672h6.6538c.7551 0 1.3672-.6121 1.3672-1.3672s-.6121-1.3672-1.3672-1.3672z"/><path d="m41.4037 40.1953h-15.6302c-.7552 0-1.3673.6121-1.3673 1.3672s.6121 1.3672 1.3673 1.3672h15.63c.7552 0 1.3673-.6121 1.3673-1.3672s-.612-1.3672-1.3671-1.3672z"/></g></svg>