<svg fill="none" height="84" viewBox="0 0 70 84" width="70" xmlns="http://www.w3.org/2000/svg"><g fill="#942fe5"><path d="m7.53243 0h-5.53243c-1.104568 0-2 .895431-2 2v7.00183c0 1.10457.895431 1.99997 2 1.99997h5.53243c2.56677 0 4.65497-2.02566 4.65497-4.51568v-1.97041c0-2.49001-2.0882-4.51571-4.65497-4.51571zm2.1159 6.48612c0 1.13193-.94907 2.05261-2.1159 2.05261h-4.99338v-6.07563h4.99338c1.16683 0 2.1159.92068 2.1159 2.05261z"/><path d="m44.2614 42.5259h-22.2589c-2.7406 0-5.2773 1.2079-6.9595 3.3137l2.0067 1.5088c1.1978-1.4994 3.0029-2.3595 4.9526-2.3595h22.2589c2.1002 0 3.8085 1.6575 3.8085 3.6948v2.2986h2.5391v-2.2984c.0001-3.3954-2.8473-6.158-6.3474-6.158z"/><path d="m7.53243 13.1353h-5.53243c-1.104568 0-2 .8954-2 2v29.4431c0 2.5175.862785 4.9131 2.45127 6.8614.42702.5237 1.20466.5271 1.69435.0614.51126-.4861.51062-1.2943.08691-1.8584-1.09931-1.4637-1.69348-3.2221-1.69348-5.0644v-26.9802c0-1.1046.89543-2 2-2h2.99338c1.16683 0 2.1159.9206 2.1159 2.0525v10.5168c0 .7011.56837 1.2695 1.26957 1.2695.7011 0 1.2695-.5684 1.2695-1.2695v-10.5168c0-2.49-2.0882-4.5154-4.65497-4.5154z"/><path d="m48.9784 80.5369c-.6871 0-1.3121-.3772-1.8414-.8153-1.3832-1.1448-3.9163-1.8962-6.7229-2.3658-.9174-.1535-1.6378-.8865-1.7311-1.812l-1.3852-13.7413c-.1187-1.178.8061-2.2006 1.99-2.2006h7.0061c2.1002 0 3.8085-1.6573 3.8085-3.6944 0-2.0373-1.7085-3.6944-3.8085-3.6944h-24.5441c-4.62 0-8.3787-3.6462-8.3787-8.1278s3.7588-8.1277 8.3787-8.1277h21.8737c.6801 0 1.2314-.5513 1.2314-1.2314 0-3.3953-2.8473-6.1574-6.3475-6.1574h-16.7576c-8.8201 0-15.99589 6.9608-15.99589 15.5166 0 8.5559 7.17579 15.5166 15.99589 15.5166.0551 0 .0823.0671.0427.1055l-3.9644 3.8456c-.3732.362-.8726.5644-1.3925.5644h-1.5792c-.6801 0-1.2315.5514-1.2315 1.2315s.5514 1.2315 1.2315 1.2315h2.6307c.5199 0 1.0194-.2025 1.3925-.5644l2.3531-2.2826c1.3459-1.3055 3.5869-.2078 3.3803 1.6559l-1.1506 10.382c-.0994.8969-.789 1.6091-1.6737 1.7869-2.3581.474-4.4228 1.171-5.6223 2.1641-.5292.4381-1.1537.8148-1.8408.8148h-3.5319c-.68 0-1.2313.5513-1.2313 1.2314 0 .68.5513 1.2313 1.2313 1.2313h41.5471c.6801 0 1.2315-.5514 1.2315-1.2315s-.5514-1.2315-1.2315-1.2315zm-25.959-48.2739c0-.6801.5514-1.2315 1.2315-1.2315h14.2567c.6163 0 1.1989.1427 1.7145.3959 1.247.6125.4054 2.0671-.9839 2.0671h-14.9873c-.6801 0-1.2315-.5514-1.2315-1.2315zm-1.2697 24.8759c-7.4201 0-13.45674-5.856-13.45674-13.0536 0-6.3281 4.66654-11.6172 10.83664-12.8032.7194-.1382 1.3507.441 1.3507 1.1735 0 .6338-.4784 1.1591-1.098 1.2925-4.8854 1.0519-8.5503 5.286-8.5503 10.3372 0 5.8396 4.8978 10.5906 10.9178 10.5906h24.5441c.7 0 1.2694.5523 1.2694 1.2314s-.5694 1.2314-1.2694 1.2314zm14.2749 17.3405c.1251 1.2404-.9032 2.2902-2.149 2.2425-.7813-.0299-1.5295-.0436-2.2235-.0436-1.009 0-2.1324.0288-3.3058.0946-1.2699.0712-2.3302-1.0004-2.1901-2.2646l1.4549-13.1269c.1123-1.0131.9686-1.7797 1.9879-1.7797h3.1174c1.0269 0 1.8869.7777 1.9899 1.7994zm-14.3175 6.0575c-.2914 0-.341-.3627-.0569-.4276 2.7297-.6243 6.2819-.9682 10.0019-.9682 3.7201 0 7.2721.3439 10.002.9682.284.0649.2345.4276-.0569.4276z"/><path d="m55.9932 68.634c-.7816 0-1.4917-.4554-1.8177-1.1659l-2.8483-6.2067c-.2862-.6239-1.0184-.9049-1.6485-.6328-.6507.2809-.9428 1.0422-.6473 1.6863l3.4951 7.6163c.326.7105 1.0361 1.1659 1.8178 1.1659h6.8845c.6802 0 1.2316.5513 1.2316 1.2315 0 .6801-.5514 1.2315-1.2316 1.2315h-8.8535c-.8066 0-1.5343-.4845-1.8453-1.2287l-4.1782-9.997c-.2652-.6345-.989-.9405-1.6289-.6888-.6594.2593-.9768 1.0099-.7036 1.6637l4.8004 11.485c.311.7442 1.0387 1.2287 1.8453 1.2287h12.3344c1.1046 0 2-.8954 2-2v-3.389c0-1.1046-.8954-2-2-2z"/><path d="m32.5 72h-2.5391v2.4639h2.5391z"/><path d="m32.5 62.145h-2.5391v2.4631h2.5391z"/><path d="m32.5 67.0728h-2.5391v2.4638h2.5391z"/></g></svg>