<svg fill="none" height="70" viewBox="0 0 71 70" width="71" xmlns="http://www.w3.org/2000/svg"><g fill="#942fe5"><path d="m35.0179 33.6877-3.6924-3.6923c-1.1559-1.1559-2.6927-1.7924-4.3274-1.7924-1.6348 0-3.1716.6366-4.3274 1.7925-.9058.9059-1.4966 2.0525-1.7084 3.3159l-.5075 3.0289c-.8745 5.218-3.314 9.9537-7.0552 13.695-2.4357 2.4358-6.39935 2.4358-8.83549-.0001-1.1802-1.1799-1.82991-2.7487-1.82991-4.4175 0-1.6689.64984-3.2377 1.82977-4.4177l14.08043-14.0805c.5339-.5339.5339-1.3996 0-1.9335-.5339-.5338-1.3997-.5338-1.9334 0l-14.0803 14.0806c-1.696468 1.6964-2.6307 3.952-2.6307 6.3512s.934232 4.6547 2.6307 6.3512c1.75115 1.751 4.05098 2.6263 6.35108 2.6263 2.29992 0 4.60022-.8755 6.35122-2.6264 4.146-4.146 6.8496-9.3939 7.8185-15.1767l.5075-3.0289c.1172-.6989.444-1.3333.9452-1.8344.6395-.6396 1.4898-.9917 2.3939-.9917.9043 0 1.7546.3521 2.3938.9917l3.6923 3.6924c.5339.5337 1.3997.5337 1.9336 0 .534-.5338.534-1.3995.0001-1.9336z"/><path d="m23.0663 20.7649c-.2543-.2543-.6071-.4006-.9666-.4006-.3596 0-.7124.1461-.9667.4006-.2543.2544-.4006.6069-.4006.9666 0 .3609.1463.7123.4006.9665.2543.2557.6071.4007.9667.4007.3595 0 .7123-.145.9666-.4007.2543-.2542.4006-.6057.4006-.9665 0-.3597-.1463-.7123-.4006-.9666z"/><path d="m58.981 9.72446-7.1229-7.12261c-1.6779-1.677872-3.9087-2.60185-6.2815-2.60185-2.3729 0-4.6038.924114-6.2815 2.60185l-14.381 14.38095c-.5339.5339-.5339 1.3997 0 1.9336.267.2667.6169.4003.9668.4003.3498 0 .6999-.1336.9667-.4005l14.381-14.38067c1.1615-1.16147 2.7055-1.8012 4.3481-1.8012 1.6425 0 3.1866.63973 4.3481 1.8012l7.1226 7.12257c.5339.5338 1.3997.5338 1.9336 0 .5339-.5339.5339-1.3996 0-1.93364z"/><path d="m12.1872 42.413c-1.7668-1.7668-4.6418-1.7668-6.40881 0-1.76702 1.7671-1.76702 4.6422 0 6.4092.8835.8835 2.04388 1.3252 3.20439 1.3252 1.16052 0 2.32102-.4417 3.20442-1.3252 1.7668-1.7671 1.7668-4.6421 0-6.4092zm-1.9333 4.4757c-.70085.701-1.84113.7008-2.54197 0s-.70084-1.8413 0-2.5421c.35042-.3504.81077-.5257 1.27112-.5257s.92069.1753 1.27095.5257c.7007.7008.7007 1.8414-.0001 2.5421z"/><path d="m54.9874 13.7182-7.6457-7.64581c-.534-.53363-1.3996-.53376-1.9334 0-.5339.53391-.534 1.39964 0 1.93368l7.6457 7.64583c.2669.2669.6168.4005.9668.4005.3499 0 .6999-.1336.9668-.4005.5337-.5339.5339-1.3996-.0002-1.9337z"/><path d="m50.9935 17.7122-7.6459-7.6459c-.5339-.53373-1.3996-.53373-1.9335 0-.5339.5339-.5339 1.3997 0 1.9336l7.6459 7.6458c.267.2669.617.4005.9669.4005.3498 0 .6999-.1336.9667-.4005.5338-.5337.5338-1.3995-.0001-1.9335z"/><path d="m46.9991 21.7058-7.6457-7.6458c-.5339-.5338-1.3996-.5338-1.9334 0-.5339.5339-.534 1.3996 0 1.9335l7.6457 7.6459c.2671.2669.6169.4005.9668.4005s.6999-.1336.9668-.4005c.5337-.5338.5339-1.3995-.0002-1.9336z"/><path d="m43.0051 25.6999-7.6459-7.6458c-.5339-.5337-1.3996-.5337-1.9334 0-.5339.5339-.5339 1.3997 0 1.9336l7.6459 7.6457c.267.2669.6169.4005.9667.4005.3499 0 .6999-.1336.9668-.4005.5338-.5338.5338-1.3995-.0001-1.9335z"/><path d="m39.0128 29.6938-7.6457-7.6458c-.5339-.5337-1.3996-.5338-1.9334 0-.5339.5339-.5341 1.3996 0 1.9337l7.6457 7.6458c.267.2669.6169.4005.9668.4005.3498 0 .6999-.1336.9667-.4005.5338-.5339.5339-1.3996-.0001-1.9337z"/><path d="m62.5044 42.84c1.2906-1.464 1.9971-3.3232 1.9971-5.2921 0-2.1413-.8339-4.1546-2.348-5.6687-3.1255-3.1254-8.2116-3.1254-11.3371 0-1.5142 1.5142-2.3479 3.5274-2.3479 5.6687 0 1.9605.7008 3.8124 1.9809 5.2735h-7.1762c-.7551 0-1.3672.6123-1.3672 1.3673s.6121 1.3672 1.3672 1.3672h12.6898c-.9541 1.0864-1.619 2.4312-1.8751 3.9152h-31.7621c.6041-2.2519 2.663-3.9152 5.103-3.9152h5.3856c.7552 0 1.3673-.6122 1.3673-1.3672s-.6121-1.3673-1.3673-1.3673h-5.3856c-4.4205 0-8.0167 3.5964-8.0167 8.0168 0 .755.6121 1.3673 1.3672 1.3673h19.1148l-13.5129 13.5129c-.5339.5339-.5339 1.3996 0 1.9335 1.5142 1.5142 3.5273 2.348 5.6685 2.348 2.1413 0 4.1545-.8339 5.6685-2.348l15.4467-15.4464h.923c.6511 3.7711 3.9435 6.6494 7.8977 6.6494 4.4204 0 8.0167-3.5963 8.0167-8.0167 0-4.2459-3.3186-7.7296-7.4979-7.9982zm-26.7196 22.8783c-.9977.9978-2.3242 1.5471-3.7351 1.5471-.9429 0-1.8482-.2454-2.6427-.706l14.3542-14.3541h5.5368zm20.4042-22.8969c-1.2997-.0713-2.5115-.611-3.439-1.5385-.9977-.9977-1.5472-2.324-1.5472-3.735s.5495-2.7375 1.5472-3.7352c2.0594-2.0593 5.4108-2.0594 7.4703 0 .9978.9977 1.5471 2.3242 1.5471 3.7352s-.5495 2.7373-1.5471 3.735c-.9276.9277-2.1394 1.4672-3.4389 1.5385zm5.7965 13.299c-2.9126 0-5.2823-2.3696-5.2823-5.2823 0-2.9128 2.3695-5.2825 5.2823-5.2825 2.9126 0 5.2823 2.3696 5.2823 5.2825.0001 2.9126-2.3695 5.2823-5.2823 5.2823z"/><path d="m39.1835 43.2224c-.2543-.2542-.6071-.4006-.9667-.4006-.3595 0-.7123.1463-.9666.4006s-.4006.607-.4006.9666.1463.7123.4006.9666c.2543.2542.6072.4006.9666.4006.3596 0 .7124-.1462.9667-.4006.2543-.2543.4006-.607.4006-.9666s-.1463-.7123-.4006-.9666z"/><path d="m51.9804 46.7537c-.2543-.2543-.6071-.3992-.9667-.3992-.3609 0-.7123.1449-.9666.3992s-.4006.6071-.4006.968c0 .3596.1463.711.4006.9667.2543.2541.6057.4006.9666.4006.3596 0 .7122-.1465.9667-.4006.2543-.2557.4006-.6071.4006-.9667 0-.3609-.1463-.7137-.4006-.968z"/></g></svg>