<svg fill="none" height="40" viewBox="0 0 40 40" width="40" xmlns="http://www.w3.org/2000/svg"><rect height="39" rx="2.5" stroke="#fff" width="39" x=".5" y=".5"/><path d="m26.4127 7.00551-3.4598-.00551c-3.887 0-6.3989 2.55813-6.3989 6.5175v3.005h-3.4787c-.3006 0-.5441.2419-.5441.5403v4.3539c0 .2984.2438.54.5441.54h3.4787v10.9864c0 .2984.2434.54.544.54h4.5387c.3006 0 .544-.2419.544-.54v-10.9864h4.0674c.3006 0 .544-.2416.544-.54l.0017-4.3539c0-.1432-.0575-.2805-.1593-.3818-.1019-.1014-.2407-.1585-.385-.1585h-4.0688v-2.5473c0-1.2244.2939-1.846 1.9008-1.846l2.3306-.0008c.3004 0 .5438-.2419.5438-.54v-4.04289c0-.29782-.2432-.53945-.5432-.54z" fill="#fff"/></svg>