<svg fill="none" height="40" viewBox="0 0 40 40" width="40" xmlns="http://www.w3.org/2000/svg"><rect height="39" rx="2.5" stroke="#fff" width="39" x=".5" y=".5"/><g fill="#fff"><path d="m26.5488 7h-12.0979c-4.1084 0-7.4509 3.2798-7.4509 7.3111v11.8707c0 4.0313 3.3425 7.311 7.4509 7.311h12.0979c4.1087 0 7.4512-3.2798 7.4512-7.311v-11.8707c.0002-4.0313-3.3425-7.3111-7.4512-7.3111zm5.0558 19.1818c0 2.7352-2.268 4.9604-5.0556 4.9604h-12.0981c-2.7875.0002-5.05533-2.2252-5.05533-4.9604v-11.8707c0-2.7352 2.26783-4.96053 5.05533-4.96053h12.0979c2.7877 0 5.0556 2.22533 5.0556 4.96053v11.8707z"/><path d="m20.5002 13.4204c-3.8363 0-6.9572 3.0625-6.9572 6.8268 0 3.7642 3.1209 6.8265 6.9572 6.8265s6.9572-3.0623 6.9572-6.8265c0-3.7643-3.1209-6.8268-6.9572-6.8268zm0 11.3025c-2.5152 0-4.5617-2.0078-4.5617-4.4758 0-2.4682 2.0463-4.4762 4.5617-4.4762s4.5617 2.008 4.5617 4.4762c0 2.468-2.0465 4.4758-4.5617 4.4758z"/><path d="m27.7489 11.4272c-.4615 0-.9149.1834-1.2409.5047-.3275.3198-.5158.7649-.5158 1.2195 0 .4531.1884.8981.5158 1.2194.3258.3197.7794.5047 1.2409.5047.4631 0 .9151-.185 1.2425-.5047.3274-.3213.5142-.7665.5142-1.2194 0-.4546-.1868-.8997-.5142-1.2195-.3258-.3213-.7794-.5047-1.2425-.5047z"/></g></svg>