<svg width="70" height="70" viewBox="0 0 70 70" fill="none" xmlns="http://www.w3.org/2000/svg">
<path d="M65.7583 40.9662H64.711V31.5855C64.711 30.1004 63.9677 28.7855 62.8325 27.9865V26.7093C62.8325 24.8565 61.3167 23.3493 59.4535 23.3493H58.6715L61.6635 18.9834C62.6664 17.5201 62.285 15.5181 60.8134 14.5207L40.511 0.762627C39.7982 0.279423 38.9389 0.101092 38.0909 0.261073C37.2433 0.420782 36.5089 0.899093 36.0231 1.60806L18.4995 27.1782H13.6232L14.7997 15.3353C14.8129 15.2018 14.9001 15.0861 15.0218 15.0406C16.5375 14.4723 17.8511 13.411 18.7204 12.0523C18.7889 11.9454 18.9181 11.8842 19.0518 11.8977L26.7001 12.649C27.2485 12.7019 27.7364 12.3047 27.7905 11.7597C27.8446 11.2147 27.4443 10.7293 26.8962 10.6754L19.2478 9.92407C18.36 9.83762 17.5133 10.2444 17.0376 10.9877C16.3985 11.9867 15.4327 12.7669 14.3182 13.1847C13.4794 13.4992 12.9034 14.2484 12.8148 15.1402L11.6191 27.1781H10.3474L12.208 8.44741C12.275 7.77323 12.8801 7.27793 13.5589 7.34548L29.0148 8.86374C29.5629 8.91634 30.0511 8.51945 30.1052 7.9744C30.1593 7.42935 29.759 6.94397 29.2108 6.89014L13.7549 5.37189C11.9829 5.19805 10.3983 6.48999 10.2232 8.25236L8.72345 23.3493H6.16943C4.30636 23.3493 2.79049 24.8565 2.79049 26.7093V27.5805C1.26628 28.2783 0.205032 29.8105 0.205032 31.5855V65.3887C0.205032 67.819 2.1933 69.7961 4.63742 69.7961H60.2787C62.7227 69.7961 64.711 67.819 64.711 65.3887V56.0081H65.7583C66.9945 56.0081 68.0001 55.0082 68.0001 53.779V43.1954C68.0002 41.9661 66.9945 40.9662 65.7583 40.9662ZM59.4535 25.3326C60.2171 25.3325 60.838 25.9501 60.838 26.7094V27.2146C60.6546 27.1915 60.4683 27.1783 60.2787 27.1783H56.0475L57.3123 25.3326H59.4535ZM37.6712 2.7248C37.8571 2.45364 38.1379 2.27069 38.4622 2.20952C38.5397 2.19498 38.6174 2.18764 38.6947 2.18764C38.9403 2.18764 39.1803 2.26076 39.3878 2.40131L59.6903 16.1594C60.2532 16.5409 60.3991 17.3067 60.0156 17.8664L53.6342 27.1779H52.1027L55.2314 22.6127C55.7388 21.8723 55.7806 20.9301 55.3402 20.1536C54.7549 19.1219 54.5176 17.9072 54.672 16.733C54.7869 15.8594 54.4003 15.0066 53.6633 14.5072L43.1385 7.37511C42.4014 6.8756 41.4618 6.82979 40.6862 7.25564C39.644 7.82787 38.4202 8.05255 37.2406 7.88836C36.3658 7.7663 35.4785 8.15912 34.9787 8.88834L22.4445 27.1781H20.913L37.6712 2.7248ZM38.1103 19.5644C33.7676 19.5644 30.2028 22.9316 29.9123 27.1781H24.8577L36.6264 10.0052C36.6933 9.90749 36.8043 9.84931 36.9181 9.84931C36.9333 9.84931 36.9485 9.8504 36.9637 9.85244C38.5681 10.0756 40.2323 9.77034 41.65 8.99191C41.7616 8.93048 41.9048 8.93931 42.0152 9.01407L52.5401 16.1463C52.6503 16.2211 52.7108 16.3505 52.6944 16.4761C52.4843 18.073 52.8072 19.725 53.6031 21.128C53.667 21.2407 53.6592 21.385 53.5835 21.4958L49.6895 27.1779H46.3088C46.018 22.9316 42.4533 19.5644 38.1103 19.5644ZM44.3089 27.1782H31.9119C32.1976 24.0263 34.8677 21.5477 38.1103 21.5477C41.3531 21.5476 44.0233 24.0263 44.3089 27.1782ZM4.78491 26.7093C4.78491 25.95 5.40589 25.3324 6.16943 25.3324H8.52648L8.34318 27.1781H4.78491V26.7093ZM2.19945 31.5855C2.19945 30.2488 3.29309 29.1613 4.63742 29.1613H60.2787C61.623 29.1613 62.7166 30.2488 62.7166 31.5855V34.3371H2.19945V31.5855ZM62.7166 65.3887C62.7166 66.7254 61.623 67.8129 60.2787 67.8129H4.63742C3.29309 67.8129 2.19945 66.7254 2.19945 65.3887V62.6371H7.57704C8.1279 62.6371 8.57418 62.1932 8.57418 61.6455C8.57418 61.0979 8.12776 60.654 7.57704 60.654H2.19945V36.3203H62.7166V40.9662H53.2349C50.2474 40.9662 47.6597 42.6978 46.4315 45.2044C46.4274 45.2128 46.4228 45.2209 46.4185 45.2294C46.4081 45.2507 46.3991 45.2729 46.389 45.2943C46.2427 45.6033 46.1156 45.9231 46.0121 46.2531C46.0119 46.2541 46.0116 46.2549 46.0113 46.2559C45.7906 46.9612 45.6715 47.7105 45.6715 48.4872C45.6715 52.6343 49.0644 56.0081 53.2348 56.0081H62.7164V60.654H13.9623C13.4114 60.654 12.9652 61.0979 12.9652 61.6455C12.9652 62.1932 13.4116 62.6371 13.9623 62.6371H62.7166V65.3887ZM66.0058 53.7789C66.0058 53.9145 65.8948 54.0249 65.7583 54.0249H53.2352C51.124 54.0249 49.2834 52.8507 48.3393 51.1246C48.2963 51.0462 48.2553 50.9665 48.2161 50.8859C48.1378 50.7246 48.0671 50.5589 48.0047 50.3893C47.7857 49.7958 47.6662 49.1551 47.6662 48.4872C47.6662 47.8192 47.7858 47.1785 48.0047 46.5851C48.0673 46.4156 48.1379 46.2499 48.2161 46.0884C48.2553 46.0078 48.2963 45.9281 48.3393 45.8497C49.2834 44.1236 51.124 42.9494 53.2352 42.9494H65.7583C65.8947 42.9494 66.0058 43.0598 66.0058 43.1954V53.7789Z" fill="#942FE5"/>
<path fill-rule="evenodd" clip-rule="evenodd" d="M19.0518 11.8977C18.9181 11.8842 18.7889 11.9454 18.7204 12.0523C17.8511 13.411 16.5375 14.4723 15.0218 15.0406C14.9001 15.0861 14.8129 15.2018 14.7997 15.3353L13.6232 27.1782H18.4995L36.0231 1.60806C36.5089 0.899093 37.2433 0.420782 38.0909 0.261073C38.9389 0.101092 39.7982 0.279423 40.511 0.762627L60.8134 14.5207C62.285 15.5181 62.6664 17.5201 61.6635 18.9834L58.6715 23.3493H59.4535C61.3167 23.3493 62.8325 24.8565 62.8325 26.7093V27.9865C63.9677 28.7855 64.711 30.1004 64.711 31.5855V40.9662H65.7583C66.9945 40.9662 68.0002 41.9661 68.0001 43.1954V53.779C68.0001 55.0082 66.9945 56.0081 65.7583 56.0081H64.711V65.3887C64.711 67.819 62.7227 69.7961 60.2787 69.7961H4.63742C2.1933 69.7961 0.205032 67.819 0.205032 65.3887V31.5855C0.205032 29.8105 1.26628 28.2783 2.79049 27.5805V26.7093C2.79049 24.8565 4.30636 23.3493 6.16943 23.3493H8.72345L10.2232 8.25236C10.3983 6.48999 11.9829 5.19805 13.7549 5.37189L29.2108 6.89014C29.759 6.94397 30.1593 7.42935 30.1052 7.9744C30.0511 8.51945 29.5629 8.91634 29.0148 8.86374L13.5589 7.34548C12.8801 7.27793 12.275 7.77323 12.208 8.44741L10.3474 27.1781H11.6191L12.8148 15.1402C12.9034 14.2484 13.4794 13.4992 14.3182 13.1847C15.4327 12.7669 16.3985 11.9867 17.0376 10.9877C17.5133 10.2444 18.36 9.83762 19.2478 9.92407L26.8962 10.6754C27.4443 10.7293 27.8446 11.2147 27.7905 11.7597C27.7364 12.3047 27.2485 12.7019 26.7001 12.649L19.0518 11.8977ZM11.4333 26.9742L12.6108 15.1202C12.707 14.1517 13.3336 13.336 14.2459 12.9939C15.3188 12.5917 16.2493 11.84 16.8647 10.8782C17.3823 10.0695 18.3039 9.62731 19.2677 9.72116L19.2679 9.72117L26.9163 10.4726C27.5771 10.5374 28.0598 11.1226 27.9945 11.7797C27.9293 12.4372 27.3409 12.9157 26.6804 12.852L26.68 12.8519L19.0316 12.1006L19.0311 12.1005C18.971 12.0945 18.9184 12.1228 18.8934 12.1618C18.0002 13.5577 16.6513 14.6475 15.0941 15.2314C15.0489 15.2483 15.0096 15.2954 15.0037 15.3553L13.8495 26.9743H18.3911L35.8537 1.49326C36.3701 0.739599 37.1517 0.230544 38.0527 0.0607625C38.9542 -0.10931 39.8687 0.0805055 40.6265 0.594162L60.9289 14.3522C62.494 15.413 62.8996 17.5419 61.8329 19.0982L59.0594 23.1454H59.4535C61.43 23.1454 63.0375 24.7439 63.0375 26.7093V27.8825C64.1755 28.723 64.916 30.0692 64.916 31.5855V40.7623H65.7583C67.1077 40.7623 68.2053 41.8535 68.2051 43.1954V53.779C68.2051 55.1208 67.1077 56.212 65.7583 56.212H64.916V65.3887C64.916 67.9316 62.8359 70 60.2787 70H4.63742C2.08007 70 0 67.9316 0 65.3887V31.5855C0 29.7743 1.0557 28.2058 2.58546 27.452V26.7093C2.58546 24.7439 4.19313 23.1454 6.16943 23.1454H8.53767L10.0192 8.23232C10.2054 6.35786 11.8904 4.9841 13.7751 5.16899L29.231 6.68725C29.8918 6.75214 30.3745 7.33733 30.3092 7.99443C30.2439 8.65197 29.6552 9.13002 28.9951 9.06668L28.9947 9.06663L13.5388 7.54838L13.5385 7.54835C12.973 7.49207 12.468 7.90496 12.4121 8.46745L10.5737 26.9742H11.4333ZM34.9787 8.88834C35.4785 8.15912 36.3658 7.7663 37.2406 7.88836C38.4202 8.05255 39.644 7.82787 40.6862 7.25564C41.4618 6.82979 42.4014 6.8756 43.1385 7.37511L53.6633 14.5072C54.4003 15.0066 54.7869 15.8594 54.672 16.733C54.5176 17.9072 54.7549 19.1219 55.3402 20.1536C55.7806 20.9301 55.7388 21.8723 55.2314 22.6127L52.1027 27.1779H53.6342L60.0156 17.8664C60.3991 17.3067 60.2532 16.5409 59.6903 16.1594L39.3878 2.40131C39.1803 2.26076 38.9403 2.18764 38.6947 2.18764C38.6174 2.18764 38.5397 2.19498 38.4622 2.20952C38.1379 2.27069 37.8571 2.45364 37.6712 2.7248L20.913 27.1781H22.4445L34.9787 8.88834ZM22.3361 26.9742L34.8092 8.77352C35.3527 7.98074 36.3164 7.55355 37.269 7.68644M22.3361 26.9742H21.3009L37.8406 2.83964C37.9958 2.6132 38.2294 2.461 38.5002 2.40987C38.5655 2.39762 38.6305 2.39152 38.6947 2.39152C38.8989 2.39152 39.0987 2.45219 39.2724 2.56979L59.5748 16.3279C60.0442 16.646 60.1659 17.285 59.8462 17.7516L53.5258 26.974H52.4906L55.4008 22.7275C55.9518 21.9235 55.9977 20.898 55.5188 20.0534C54.9553 19.0602 54.7266 17.8899 54.8753 16.7594C55.0003 15.8089 54.5791 14.881 53.7787 14.3387L43.254 7.20663C42.4535 6.6642 41.431 6.61381 40.5871 7.07716C39.5838 7.62804 38.4047 7.84451 37.269 7.68644M36.6264 10.0052L24.8577 27.1781H29.9123C30.2028 22.9316 33.7676 19.5644 38.1103 19.5644C42.4533 19.5644 46.018 22.9316 46.3088 27.1779H49.6895L53.5835 21.4958C53.6592 21.385 53.667 21.2407 53.6031 21.128C52.8072 19.725 52.4843 18.073 52.6944 16.4761C52.7108 16.3505 52.6503 16.2211 52.5401 16.1463L42.0152 9.01407C41.9048 8.93931 41.7616 8.93048 41.65 8.99191C40.2323 9.77034 38.5681 10.0756 36.9637 9.85244C36.9485 9.8504 36.9333 9.84931 36.9181 9.84931C36.8043 9.84931 36.6933 9.90749 36.6264 10.0052ZM41.8999 9.18261C39.8436 10.33 36.9234 10.0532 36.9181 10.0532C36.8735 10.0532 36.8256 10.0768 36.7961 10.1199L36.7351 10.2091H36.7348L25.2456 26.9742H29.7229C30.1123 22.7116 33.7239 19.3605 38.1103 19.3605C42.4971 19.3605 46.1085 22.7116 46.4981 26.974H49.5811L53.4139 21.3812C53.4479 21.3315 52.0772 19.097 52.4911 16.4498M41.8999 9.18261L52.4245 16.3147L41.8999 9.18261ZM52.4245 16.3147C52.4746 16.3488 52.497 16.4048 52.4911 16.4498L52.4245 16.3147ZM46.4315 45.2044C47.6597 42.6978 50.2474 40.9662 53.2349 40.9662H62.7166V36.3203H2.19945V60.654H7.57704C8.12776 60.654 8.57418 61.0979 8.57418 61.6455C8.57418 62.1932 8.1279 62.6371 7.57704 62.6371H2.19945V65.3887C2.19945 66.7254 3.29309 67.8129 4.63742 67.8129H60.2787C61.623 67.8129 62.7166 66.7254 62.7166 65.3887V62.6371H13.9623C13.4116 62.6371 12.9652 62.1932 12.9652 61.6455C12.9652 61.0979 13.4114 60.654 13.9623 60.654H62.7164V56.0081H53.2348C49.0644 56.0081 45.6715 52.6343 45.6715 48.4872C45.6715 47.7105 45.7906 46.9612 46.0113 46.2559L46.0121 46.2531C46.1156 45.9231 46.2427 45.6033 46.389 45.2943C46.3935 45.2847 46.3978 45.275 46.4021 45.2653C46.4075 45.2532 46.4128 45.2412 46.4185 45.2294C46.4228 45.2209 46.4274 45.2128 46.4315 45.2044ZM46.2033 45.2079C46.2067 45.2007 46.2099 45.1934 46.2143 45.1835L46.216 45.1797C46.2208 45.1688 46.227 45.1549 46.234 45.1405L46.2345 45.1394L46.2351 45.1382C46.2382 45.1321 46.2413 45.1262 46.2432 45.1227L46.2438 45.1216C46.246 45.1174 46.2467 45.1162 46.2469 45.1156L46.2472 45.1151C47.5082 42.5413 50.1658 40.7623 53.2349 40.7623H62.5115V36.5242H2.40448V60.4501H7.57704C8.241 60.4501 8.77921 60.9853 8.77921 61.6455C8.77921 62.3057 8.24115 62.841 7.57704 62.841H2.40448V65.3887C2.40448 66.6127 3.40632 67.609 4.63742 67.609H60.2787C61.5098 67.609 62.5115 66.6128 62.5115 65.3887V62.841H13.9623C13.2983 62.841 12.7601 62.3058 12.7601 61.6455C12.7601 60.9853 13.2982 60.4501 13.9623 60.4501H62.5114V56.212H53.2348C48.9512 56.212 45.4665 52.7469 45.4665 48.4872C45.4665 47.6901 45.5886 46.9208 45.8152 46.1966L45.8153 46.1962M45.8156 46.1953L45.8157 46.1948L45.8158 46.1944L45.8164 46.1924C45.9228 45.853 46.0534 45.5246 46.2033 45.2079M48.5194 51.0272C49.4291 52.6905 51.2023 53.821 53.2352 53.821H65.7583C65.7817 53.821 65.8008 53.8019 65.8008 53.7789V43.1954C65.8008 43.1725 65.7816 43.1533 65.7583 43.1533H53.2352C51.2023 43.1533 49.4291 44.2838 48.5194 45.9471C48.4781 46.0225 48.4386 46.0993 48.4007 46.1772C48.3254 46.3327 48.2574 46.4922 48.1972 46.6553C47.9865 47.2266 47.8713 47.8436 47.8713 48.4872C47.8713 49.1307 47.9863 49.7477 48.1971 50.319C48.2572 50.4822 48.3253 50.6418 48.4007 50.7971C48.4386 50.875 48.4781 50.9518 48.5194 51.0272ZM48.2161 50.8859C48.2553 50.9665 48.2963 51.0462 48.3393 51.1246C49.2834 52.8507 51.124 54.0249 53.2352 54.0249H65.7583C65.8948 54.0249 66.0058 53.9145 66.0058 53.7789V43.1954C66.0058 43.0598 65.8947 42.9494 65.7583 42.9494H53.2352C51.124 42.9494 49.2834 44.1236 48.3393 45.8497C48.2963 45.9281 48.2553 46.0078 48.2161 46.0884C48.1379 46.2499 48.0673 46.4156 48.0047 46.5851C47.7858 47.1785 47.6662 47.8192 47.6662 48.4872C47.6662 49.1551 47.7857 49.7958 48.0047 50.3893C48.0671 50.5589 48.1378 50.7246 48.2161 50.8859ZM60.633 26.7094C60.633 26.0627 60.1038 25.5364 59.4535 25.5365H57.4207L56.4353 26.9744H60.2787C60.3983 26.9744 60.5164 26.9794 60.633 26.9886V26.7094ZM60.838 27.2146C60.7701 27.2061 60.7018 27.1989 60.633 27.1932C60.5161 27.1836 60.3981 27.1783 60.2787 27.1783H56.0475L57.3123 25.3326H59.4535C60.2171 25.3325 60.838 25.9501 60.838 26.7094V27.2146ZM44.3089 27.1782C44.3027 27.1099 44.2954 27.0419 44.287 26.9743C43.9074 23.9201 41.2829 21.5476 38.1103 21.5477C34.9379 21.5477 32.3136 23.9201 31.9338 26.9743C31.9254 27.0419 31.9181 27.1099 31.9119 27.1782H44.3089ZM44.0803 26.9743C43.702 24.0329 41.1693 21.7515 38.1103 21.7516C35.0515 21.7516 32.5189 24.0329 32.1405 26.9743H44.0803ZM6.16943 25.5362C5.51915 25.5362 4.98994 26.0626 4.98994 26.7093V26.9742H8.1574L8.3002 25.5362H6.16943ZM6.16943 25.3324C5.40589 25.3324 4.78491 25.95 4.78491 26.7093V27.1781H8.34318L8.52648 25.3324H6.16943ZM4.63742 29.3652C3.40632 29.3652 2.40448 30.3614 2.40448 31.5855V34.1332H62.5115V31.5855C62.5115 30.3614 61.5098 29.3652 60.2787 29.3652H4.63742ZM4.63742 29.1613C3.29309 29.1613 2.19945 30.2488 2.19945 31.5855V34.3371H62.7166V31.5855C62.7166 30.2488 61.623 29.1613 60.2787 29.1613H4.63742Z" fill="#942FE5"/>
<path d="M53.4687 44.4638C51.2376 44.4638 49.4227 46.2687 49.4227 48.4871C49.4227 50.7055 51.2376 52.5103 53.4687 52.5103C55.6997 52.5103 57.5146 50.7055 57.5146 48.4871C57.5146 46.2687 55.6997 44.4638 53.4687 44.4638ZM53.4687 50.527C52.3374 50.527 51.4171 49.6119 51.4171 48.4871C51.4171 47.3624 52.3374 46.4471 53.4687 46.4471C54.5999 46.4471 55.5202 47.3622 55.5202 48.4871C55.5202 49.612 54.5999 50.527 53.4687 50.527Z" fill="#942FE5"/>
</svg>
