<svg width="68" height="70" viewBox="0 0 68 70" fill="none" xmlns="http://www.w3.org/2000/svg">
<path d="M65.5605 40.9662H64.5163V31.5855C64.5163 30.1004 63.7753 28.7855 62.6435 27.9865V26.7093C62.6435 24.8565 61.1323 23.3493 59.2747 23.3493H58.4951L61.478 18.9834C62.4779 17.5201 62.0977 15.5181 60.6305 14.5207L40.3892 0.762627C39.6785 0.279423 38.8218 0.101092 37.9764 0.261073C37.1313 0.420782 36.3991 0.899093 35.9148 1.60806L18.4439 27.1782H13.5822L14.7551 15.3353C14.7684 15.2018 14.8553 15.0861 14.9766 15.0406C16.4878 14.4723 17.7974 13.411 18.6641 12.0523C18.7324 11.9454 18.8612 11.8842 18.9945 11.8977L26.6198 12.649C27.1666 12.7019 27.653 12.3047 27.7069 11.7597C27.7609 11.2147 27.3617 10.7293 26.8153 10.6754L19.1899 9.92407C18.3048 9.83762 17.4607 10.2444 16.9864 10.9877C16.3492 11.9867 15.3862 12.7669 14.2752 13.1847C13.4388 13.4992 12.8646 14.2484 12.7763 15.1402L11.5841 27.1781H10.3163L12.1713 8.44741C12.2381 7.77323 12.8414 7.27793 13.5182 7.34548L28.9276 8.86374C29.474 8.91634 29.9607 8.51945 30.0146 7.9744C30.0686 7.42935 29.6695 6.94397 29.123 6.89014L13.7136 5.37189C11.9469 5.19805 10.367 6.48999 10.1924 8.25236L8.69721 23.3493H6.15087C4.29341 23.3493 2.7821 24.8565 2.7821 26.7093V27.5805C1.26247 28.2783 0.204416 29.8105 0.204416 31.5855V65.3887C0.204416 67.819 2.1867 69.7961 4.62348 69.7961H60.0974C62.5341 69.7961 64.5163 67.819 64.5163 65.3887V56.0081H65.5605C66.793 56.0081 67.7956 55.0082 67.7956 53.779V43.1954C67.7957 41.9661 66.793 40.9662 65.5605 40.9662ZM59.2747 25.3326C60.036 25.3325 60.6551 25.9501 60.6551 26.7094V27.2146C60.4722 27.1915 60.2864 27.1783 60.0974 27.1783H55.879L57.1399 25.3326H59.2747ZM37.5579 2.7248C37.7432 2.45364 38.0232 2.27069 38.3465 2.20952C38.4238 2.19498 38.5013 2.18764 38.5783 2.18764C38.8232 2.18764 39.0625 2.26076 39.2694 2.40131L59.5107 16.1594C60.0719 16.5409 60.2175 17.3067 59.8351 17.8664L53.4728 27.1779H51.946L55.0652 22.6127C55.5711 21.8723 55.6128 20.9301 55.1737 20.1536C54.5902 19.1219 54.3536 17.9072 54.5076 16.733C54.6221 15.8594 54.2367 15.0066 53.5019 14.5072L43.0088 7.37511C42.2739 6.8756 41.3371 6.82979 40.5639 7.25564C39.5247 7.82787 38.3047 8.05255 37.1286 7.88836C36.2564 7.7663 35.3718 8.15912 34.8735 8.88834L22.377 27.1781H20.8501L37.5579 2.7248ZM37.9957 19.5644C33.6661 19.5644 30.1119 22.9316 29.8224 27.1781H24.783L36.5163 10.0052C36.5829 9.90749 36.6936 9.84931 36.8071 9.84931C36.8222 9.84931 36.8374 9.8504 36.8525 9.85244C38.4521 10.0756 40.1113 9.77034 41.5248 8.99191C41.636 8.93048 41.7788 8.93931 41.8889 9.01407L52.3821 16.1463C52.4919 16.2211 52.5523 16.3505 52.5359 16.4761C52.3265 18.073 52.6484 19.725 53.4419 21.128C53.5056 21.2407 53.4978 21.385 53.4223 21.4958L49.54 27.1779H46.1695C45.8796 22.9316 42.3257 19.5644 37.9957 19.5644ZM44.1756 27.1782H31.816C32.1008 24.0263 34.7628 21.5477 37.9957 21.5477C41.2288 21.5476 43.8909 24.0263 44.1756 27.1782ZM4.77052 26.7093C4.77052 25.95 5.38963 25.3324 6.15087 25.3324H8.50083L8.31809 27.1781H4.77052V26.7093ZM2.19284 31.5855C2.19284 30.2488 3.28319 29.1613 4.62348 29.1613H60.0974C61.4377 29.1613 62.5279 30.2488 62.5279 31.5855V34.3371H2.19284V31.5855ZM62.5279 65.3887C62.5279 66.7254 61.4377 67.8129 60.0974 67.8129H4.62348C3.28319 67.8129 2.19284 66.7254 2.19284 65.3887V62.6371H7.55425C8.10345 62.6371 8.5484 62.1932 8.5484 61.6455C8.5484 61.0979 8.10331 60.654 7.55425 60.654H2.19284V36.3203H62.5279V40.9662H53.0748C50.0963 40.9662 47.5163 42.6978 46.2919 45.2044C46.2878 45.2128 46.2831 45.2209 46.2789 45.2294C46.2686 45.2507 46.2596 45.2729 46.2495 45.2943C46.1037 45.6033 45.9769 45.9231 45.8738 46.2531C45.8735 46.2541 45.8732 46.2549 45.8729 46.2559C45.6529 46.9612 45.5342 47.7105 45.5342 48.4872C45.5342 52.6343 48.9168 56.0081 53.0746 56.0081H62.5278V60.654H13.9203C13.3711 60.654 12.9262 61.0979 12.9262 61.6455C12.9262 62.1932 13.3712 62.6371 13.9203 62.6371H62.5279V65.3887ZM65.8073 53.7789C65.8073 53.9145 65.6966 54.0249 65.5605 54.0249H53.0751C50.9703 54.0249 49.1351 52.8507 48.1939 51.1246C48.1511 51.0462 48.1102 50.9665 48.0711 50.8859C47.993 50.7246 47.9226 50.5589 47.8603 50.3893C47.642 49.7958 47.5229 49.1551 47.5229 48.4872C47.5229 47.8192 47.6421 47.1785 47.8603 46.5851C47.9227 46.4156 47.9931 46.2499 48.0711 46.0884C48.1102 46.0078 48.1511 45.9281 48.1939 45.8497C49.1351 44.1236 50.9703 42.9494 53.0751 42.9494H65.5605C65.6965 42.9494 65.8073 43.0598 65.8073 43.1954V53.7789Z" fill="#942FE5"/>
<path fill-rule="evenodd" clip-rule="evenodd" d="M18.9945 11.8977C18.8612 11.8842 18.7324 11.9454 18.6641 12.0523C17.7974 13.411 16.4878 14.4723 14.9766 15.0406C14.8553 15.0861 14.7684 15.2018 14.7551 15.3353L13.5822 27.1782H18.4439L35.9148 1.60806C36.3991 0.899093 37.1313 0.420782 37.9764 0.261073C38.8218 0.101092 39.6785 0.279423 40.3892 0.762627L60.6305 14.5207C62.0977 15.5181 62.4779 17.5201 61.478 18.9834L58.4951 23.3493H59.2747C61.1323 23.3493 62.6435 24.8565 62.6435 26.7093V27.9865C63.7753 28.7855 64.5163 30.1004 64.5163 31.5855V40.9662H65.5605C66.793 40.9662 67.7957 41.9661 67.7956 43.1954V53.779C67.7956 55.0082 66.793 56.0081 65.5605 56.0081H64.5163V65.3887C64.5163 67.819 62.5341 69.7961 60.0974 69.7961H4.62348C2.1867 69.7961 0.204416 67.819 0.204416 65.3887V31.5855C0.204416 29.8105 1.26247 28.2783 2.7821 27.5805V26.7093C2.7821 24.8565 4.29341 23.3493 6.15087 23.3493H8.69721L10.1924 8.25236C10.367 6.48999 11.9469 5.19805 13.7136 5.37189L29.123 6.89014C29.6695 6.94397 30.0686 7.42935 30.0146 7.9744C29.9607 8.51945 29.474 8.91634 28.9276 8.86374L13.5182 7.34548C12.8414 7.27793 12.2381 7.77323 12.1713 8.44741L10.3163 27.1781H11.5841L12.7763 15.1402C12.8646 14.2484 13.4388 13.4992 14.2752 13.1847C15.3862 12.7669 16.3492 11.9867 16.9864 10.9877C17.4607 10.2444 18.3048 9.83762 19.1899 9.92407L26.8153 10.6754C27.3617 10.7293 27.7609 11.2147 27.7069 11.7597C27.653 12.3047 27.1666 12.7019 26.6198 12.649L18.9945 11.8977ZM11.3989 26.9742L12.5728 15.1202C12.6687 14.1517 13.2935 13.336 14.2031 12.9939C15.2728 12.5917 16.2005 11.84 16.8139 10.8782C17.33 10.0695 18.2489 9.6273 19.2098 9.72116L19.21 9.72117L26.8354 10.4726C27.4942 10.5374 27.9754 11.1226 27.9103 11.7797C27.8453 12.4372 27.2586 12.9157 26.6001 12.852L26.5997 12.8519L18.9744 12.1006L18.9739 12.1005C18.9139 12.0945 18.8615 12.1228 18.8366 12.1618C17.9461 13.5577 16.6012 14.6475 15.0487 15.2314C15.0036 15.2483 14.9645 15.2954 14.9586 15.3553L13.8078 26.9743H18.3358L35.7458 1.49326C36.2607 0.739599 37.04 0.230544 37.9383 0.0607625C38.8371 -0.10931 39.7488 0.0805055 40.5043 0.594162L60.7457 14.3522C62.3061 15.413 62.7104 17.5419 61.647 19.0982L58.8817 23.1454H59.2747C61.2452 23.1454 62.8479 24.7439 62.8479 26.7093V27.8825C63.9825 28.723 64.7208 30.0692 64.7208 31.5855V40.7623H65.5605C66.9059 40.7623 68.0001 41.8535 68 43.1954V53.779C68 55.1208 66.9059 56.212 65.5605 56.212H64.7208V65.3887C64.7208 67.9316 62.647 70 60.0974 70H4.62348C2.07381 70 0 67.9316 0 65.3887V31.5855C0 29.7743 1.05252 28.2058 2.57768 27.452V26.7093C2.57768 24.7439 4.18052 23.1454 6.15087 23.1454H8.51199L9.98902 8.23231C10.1747 6.35786 11.8546 4.9841 13.7336 5.16899L29.1431 6.68725C29.8019 6.75214 30.2831 7.33733 30.2181 7.99443C30.153 8.65197 29.566 9.13002 28.9079 9.06668L28.9075 9.06663L13.4981 7.54838L13.4978 7.54835C12.934 7.49207 12.4305 7.90496 12.3747 8.46745L10.5419 26.9742H11.3989ZM34.8735 8.88834C35.3718 8.15912 36.2564 7.7663 37.1286 7.88836C38.3047 8.05255 39.5247 7.82787 40.5639 7.25564C41.3371 6.82979 42.2739 6.8756 43.0088 7.37511L53.5019 14.5072C54.2367 15.0066 54.6221 15.8594 54.5076 16.733C54.3536 17.9072 54.5902 19.1219 55.1737 20.1536C55.6128 20.9301 55.5711 21.8723 55.0652 22.6127L51.946 27.1779H53.4728L59.8351 17.8664C60.2175 17.3067 60.0719 16.5409 59.5107 16.1594L39.2694 2.40131C39.0625 2.26076 38.8232 2.18764 38.5783 2.18764C38.5013 2.18764 38.4238 2.19498 38.3465 2.20952C38.0232 2.27069 37.7432 2.45364 37.5579 2.7248L20.8501 27.1781H22.377L34.8735 8.88834ZM22.2689 26.9742L34.7045 8.77352C35.2464 7.98074 36.2071 7.55355 37.1569 7.68644M22.2689 26.9742H21.2368L37.7268 2.83964C37.8815 2.6132 38.1145 2.461 38.3844 2.40987C38.4495 2.39762 38.5143 2.39152 38.5783 2.39152C38.7819 2.39152 38.9811 2.45219 39.1542 2.56979L59.3956 16.3279C59.8636 16.646 59.985 17.285 59.6662 17.7516L53.3648 26.974H52.3327L55.2342 22.7275C55.7835 21.9235 55.8293 20.898 55.3518 20.0534C54.79 19.0602 54.562 17.8899 54.7103 16.7594C54.8348 15.8089 54.415 14.881 53.617 14.3387L43.1239 7.20663C42.3258 6.6642 41.3064 6.61381 40.465 7.07716C39.4647 7.62804 38.2892 7.84451 37.1569 7.68644M36.5163 10.0052L24.783 27.1781H29.8224C30.1119 22.9316 33.6661 19.5644 37.9957 19.5644C42.3257 19.5644 45.8796 22.9316 46.1695 27.1779H49.54L53.4223 21.4958C53.4978 21.385 53.5056 21.2407 53.4419 21.128C52.6484 19.725 52.3265 18.073 52.5359 16.4761C52.5523 16.3505 52.4919 16.2211 52.3821 16.1463L41.8889 9.01407C41.7788 8.93931 41.636 8.93048 41.5248 8.99191C40.1113 9.77034 38.4521 10.0756 36.8525 9.85244C36.8374 9.8504 36.8222 9.84931 36.8071 9.84931C36.6936 9.84931 36.5829 9.90749 36.5163 10.0052ZM41.7739 9.18261C39.7237 10.33 36.8123 10.0532 36.8071 10.0532C36.7626 10.0532 36.7148 10.0768 36.6855 10.1199L36.6246 10.2091H36.6244L25.1696 26.9742H29.6335C30.0218 22.7116 33.6224 19.3605 37.9957 19.3605C42.3693 19.3605 45.9698 22.7116 46.3583 26.974H49.432L53.2532 21.3812C53.2871 21.3315 51.9205 19.097 52.3332 16.4498M41.7739 9.18261L52.2669 16.3147ZM52.2669 16.3147C52.3168 16.3488 52.3391 16.4048 52.3332 16.4498ZM46.2919 45.2044C47.5163 42.6978 50.0963 40.9662 53.0748 40.9662H62.5279V36.3203H2.19284V60.654H7.55425C8.10331 60.654 8.5484 61.0979 8.5484 61.6455C8.5484 62.1932 8.10345 62.6371 7.55425 62.6371H2.19284V65.3887C2.19284 66.7254 3.28319 67.8129 4.62348 67.8129H60.0974C61.4377 67.8129 62.5279 66.7254 62.5279 65.3887V62.6371H13.9203C13.3712 62.6371 12.9262 62.1932 12.9262 61.6455C12.9262 61.0979 13.3711 60.654 13.9203 60.654H62.5278V56.0081H53.0746C48.9168 56.0081 45.5342 52.6343 45.5342 48.4872C45.5342 47.7105 45.6529 46.9612 45.8729 46.2559L45.8738 46.2531C45.9769 45.9231 46.1037 45.6033 46.2495 45.2943C46.254 45.2847 46.2583 45.275 46.2626 45.2653C46.2679 45.2532 46.2732 45.2412 46.2789 45.2294C46.2831 45.2209 46.2878 45.2128 46.2919 45.2044ZM46.0644 45.2079C46.0677 45.2007 46.0709 45.1934 46.0753 45.1835L46.077 45.1797C46.0818 45.1688 46.088 45.1549 46.0949 45.1405L46.0955 45.1394L46.0961 45.1382C46.0991 45.1321 46.1023 45.1262 46.1041 45.1227L46.1047 45.1216C46.1069 45.1174 46.1076 45.1162 46.1079 45.1156L46.1081 45.1151C47.3654 42.5413 50.0149 40.7623 53.0748 40.7623H62.3235V36.5242H2.39725V60.4501H7.55425C8.21621 60.4501 8.75281 60.9853 8.75281 61.6455C8.75281 62.3057 8.21636 62.841 7.55425 62.841H2.39725V65.3887C2.39725 66.6127 3.39608 67.609 4.62348 67.609H60.0974C61.3248 67.609 62.3235 66.6128 62.3235 65.3887V62.841H13.9203C13.2583 62.841 12.7217 62.3058 12.7217 61.6455C12.7217 60.9853 13.2582 60.4501 13.9203 60.4501H62.3234V56.212H53.0746C48.8039 56.212 45.3297 52.7469 45.3297 48.4872C45.3297 47.6901 45.4515 46.9208 45.6774 46.1966L45.6775 46.1962M45.6778 46.1953L45.6779 46.1948L45.678 46.1944L45.6786 46.1924C45.7847 45.853 45.9149 45.5246 46.0644 45.2079M48.3735 51.0272C49.2805 52.6905 51.0483 53.821 53.0751 53.821H65.5605C65.5838 53.821 65.6029 53.8019 65.6029 53.7789V43.1954C65.6029 43.1725 65.5838 43.1533 65.5605 43.1533H53.0751C51.0483 43.1533 49.2805 44.2838 48.3735 45.9471C48.3323 46.0225 48.2929 46.0993 48.2551 46.1772C48.1801 46.3327 48.1123 46.4922 48.0522 46.6552C47.8421 47.2266 47.7273 47.8436 47.7273 48.4872C47.7273 49.1307 47.842 49.7477 48.0522 50.319C48.1121 50.4822 48.1799 50.6418 48.2551 50.7971C48.2929 50.875 48.3323 50.9518 48.3735 51.0272ZM48.0711 50.8859C48.1102 50.9665 48.1511 51.0462 48.1939 51.1246C49.1351 52.8507 50.9703 54.0249 53.0751 54.0249H65.5605C65.6966 54.0249 65.8073 53.9145 65.8073 53.7789V43.1954C65.8073 43.0598 65.6965 42.9494 65.5605 42.9494H53.0751C50.9703 42.9494 49.1351 44.1236 48.1939 45.8497C48.1511 45.9281 48.1102 46.0078 48.0711 46.0884C47.9931 46.2499 47.9227 46.4156 47.8603 46.5851C47.6421 47.1785 47.5229 47.8192 47.5229 48.4872C47.5229 49.1551 47.642 49.7958 47.8603 50.3893C47.9226 50.5589 47.993 50.7246 48.0711 50.8859ZM60.4507 26.7094C60.4507 26.0627 59.923 25.5364 59.2747 25.5365H57.248L56.2656 26.9744H60.0974C60.2167 26.9744 60.3344 26.9794 60.4507 26.9886V26.7094ZM60.6551 27.2146C60.5873 27.2061 60.5192 27.1989 60.4507 27.1932C60.3341 27.1836 60.2164 27.1783 60.0974 27.1783H55.879L57.1399 25.3326H59.2747C60.036 25.3325 60.6551 25.9501 60.6551 26.7094V27.2146ZM44.1756 27.1782C44.1694 27.1099 44.1622 27.0419 44.1538 26.9743C43.7753 23.9201 41.1587 21.5476 37.9957 21.5477C34.8329 21.5477 32.2164 23.9201 31.8378 26.9743C31.8294 27.0419 31.8221 27.1099 31.816 27.1782H44.1756ZM43.9478 26.9743C43.5706 24.0329 41.0455 21.7515 37.9957 21.7516C34.9461 21.7516 32.4211 24.0329 32.0438 26.9743H43.9478ZM6.15087 25.5362C5.50255 25.5362 4.97494 26.0626 4.97494 26.7093V26.9742H8.13286L8.27524 25.5362H6.15087ZM6.15087 25.3324C5.38963 25.3324 4.77052 25.95 4.77052 26.7093V27.1781H8.31809L8.50083 25.3324H6.15087ZM4.62348 29.3652C3.39608 29.3652 2.39725 30.3614 2.39725 31.5855V34.1332H62.3235V31.5855C62.3235 30.3614 61.3248 29.3652 60.0974 29.3652H4.62348ZM4.62348 29.1613C3.28319 29.1613 2.19284 30.2488 2.19284 31.5855V34.3371H62.5279V31.5855C62.5279 30.2488 61.4377 29.1613 60.0974 29.1613H4.62348Z" fill="#942FE5"/>
<path d="M53.3079 44.4638C51.0835 44.4638 49.2741 46.2687 49.2741 48.4871C49.2741 50.7055 51.0835 52.5103 53.3079 52.5103C55.5322 52.5103 57.3417 50.7055 57.3417 48.4871C57.3417 46.2687 55.5322 44.4638 53.3079 44.4638ZM53.3079 50.527C52.18 50.527 51.2625 49.6119 51.2625 48.4871C51.2625 47.3624 52.18 46.4471 53.3079 46.4471C54.4357 46.4471 55.3532 47.3622 55.3532 48.4871C55.3532 49.612 54.4357 50.527 53.3079 50.527Z" fill="#942FE5"/>
</svg>
