<svg fill="none" height="70" viewBox="0 0 70 70" width="70" xmlns="http://www.w3.org/2000/svg"><g fill="#942fe5"><path d="m65.7583 40.9662h-1.0473v-9.3807c0-1.4851-.7433-2.8-1.8785-3.599v-1.2772c0-1.8528-1.5158-3.36-3.379-3.36h-.782l2.992-4.3659c1.0029-1.4633.6215-3.4653-.8501-4.4627l-20.3024-13.758073c-.7128-.483204-1.5721-.661535-2.4201-.501554-.8476.159709-1.582.63802-2.0678 1.346987l-17.5236 25.57014h-4.8763l1.1765-11.8429c.0132-.1335.1004-.2492.2221-.2947 1.5157-.5683 2.8293-1.6296 3.6986-2.9883.0685-.1069.1977-.1681.3314-.1546l7.6483.7513c.5484.0529 1.0363-.3443 1.0904-.8893s-.3462-1.0304-.8943-1.0843l-7.6484-.75133c-.8878-.08645-1.7345.32033-2.2102 1.06363-.6391.999-1.6049 1.7792-2.7194 2.197-.8388.3145-1.4148 1.0637-1.5034 1.9555l-1.1957 12.0379h-1.2717l1.8606-18.73069c.067-.67418.6721-1.16948 1.3509-1.10193l15.4559 1.51826c.5481.0526 1.0363-.34429 1.0904-.88934s-.3462-1.03043-.8944-1.08426l-15.4559-1.51825c-1.772-.17384-3.3566 1.1181-3.5317 2.88047l-1.49975 15.09694h-2.55402c-1.86307 0-3.37894 1.5072-3.37894 3.36v.8712c-1.52421.6978-2.585458 2.23-2.585458 4.005v33.8032c0 2.4303 1.988268 4.4074 4.432388 4.4074h55.64128c2.444 0 4.4323-1.9771 4.4323-4.4074v-9.3806h1.0473c1.2362 0 2.2418-.9999 2.2418-2.2291v-10.5836c.0001-1.2293-1.0056-2.2292-2.2418-2.2292zm-6.3048-15.6336c.7636-.0001 1.3845.6175 1.3845 1.3768v.5052c-.1834-.0231-.3697-.0363-.5593-.0363h-4.2312l1.2648-1.8457zm-21.7823-22.6078c.1859-.27116.4667-.45411.791-.51528.0775-.01454.1552-.02188.2325-.02188.2456 0 .4856.07312.6931.21367l20.3025 13.75809c.5629.3815.7088 1.1473.3253 1.707l-6.3814 9.3115h-1.5315l3.1287-4.5652c.5074-.7404.5492-1.6826.1088-2.4591-.5853-1.0317-.8226-2.2464-.6682-3.4206.1149-.8736-.2717-1.7264-1.0087-2.2258l-10.5248-7.13209c-.7371-.49951-1.6767-.54532-2.4523-.11947-1.0422.57223-2.266.79691-3.4456.63272-.8748-.12206-1.7621.27076-2.2619.99998l-12.5342 18.28976h-1.5315zm.4391 16.8396c-4.3427 0-7.9075 3.3672-8.198 7.6137h-5.0546l11.7687-17.1729c.0669-.09771.1779-.15589.2917-.15589.0152 0 .0304.00109.0456.00313 1.6044.22316 3.2686-.0821 4.6863-.86053.1116-.06143.2548-.0526.3652.02216l10.5249 7.13223c.1102.0748.1707.2042.1543.3298-.2101 1.5969.1128 3.2489.9087 4.6519.0639.1127.0561.257-.0196.3678l-3.894 5.6821h-3.3807c-.2908-4.2463-3.8555-7.6135-8.1985-7.6135zm6.1986 7.6138h-12.397c.2857-3.1519 2.9558-5.6305 6.1984-5.6305 3.2428-.0001 5.913 2.4786 6.1986 5.6305zm-39.52399-.4689c0-.7593.62098-1.3769 1.38452-1.3769h2.35705l-.1833 1.8457h-3.55827zm-2.58546 4.8762c0-1.3367 1.09364-2.4242 2.43797-2.4242h55.64128c1.3443 0 2.4379 1.0875 2.4379 2.4242v2.7516h-60.51715zm60.51715 33.8032c0 1.3367-1.0936 2.4242-2.4379 2.4242h-55.64128c-1.34433 0-2.43797-1.0875-2.43797-2.4242v-2.7516h5.37759c.55086 0 .99714-.4439.99714-.9916 0-.5476-.44642-.9915-.99714-.9915h-5.37759v-24.3337h60.51715v4.6459h-9.4817c-2.9875 0-5.5752 1.7316-6.8034 4.2382-.0041.0084-.0087.0165-.013.025-.0104.0213-.0194.0435-.0295.0649-.1463.309-.2734.6288-.3769.9588-.0002.001-.0005.0018-.0008.0028-.2207.7053-.3398 1.4546-.3398 2.2313 0 4.1471 3.3929 7.5209 7.5633 7.5209h9.4816v4.6459h-48.7541c-.5509 0-.9971.4439-.9971.9915 0 .5477.4464.9916.9971.9916h48.7543zm3.2892-11.6098c0 .1356-.111.246-.2475.246h-12.5231c-2.1112 0-3.9518-1.1742-4.8959-2.9003-.043-.0784-.084-.1581-.1232-.2387-.0783-.1613-.149-.327-.2114-.4966-.219-.5935-.3385-1.2342-.3385-1.9021 0-.668.1196-1.3087.3385-1.9021.0626-.1695.1332-.3352.2114-.4967.0392-.0806.0802-.1603.1232-.2387.9441-1.7261 2.7847-2.9003 4.8959-2.9003h12.5231c.1364 0 .2475.1104.2475.246z"/><path clip-rule="evenodd" d="m19.0518 11.8977c-.1337-.0135-.2629.0477-.3314.1546-.8693 1.3587-2.1829 2.42-3.6986 2.9883-.1217.0455-.2089.1612-.2221.2947l-1.1765 11.8429h4.8763l17.5236-25.57014c.4858-.708967 1.2202-1.187278 2.0678-1.346987.848-.159981 1.7073.01835 2.4201.501554l20.3024 13.758073c1.4716.9974 1.853 2.9994.8501 4.4627l-2.992 4.3659h.782c1.8632 0 3.379 1.5072 3.379 3.36v1.2772c1.1352.799 1.8785 2.1139 1.8785 3.599v9.3807h1.0473c1.2362 0 2.2419.9999 2.2418 2.2292v10.5836c0 1.2292-1.0056 2.2291-2.2418 2.2291h-1.0473v9.3806c0 2.4303-1.9883 4.4074-4.4323 4.4074h-55.64128c-2.44412 0-4.432388-1.9771-4.432388-4.4074v-33.8032c0-1.775 1.061248-3.3072 2.585458-4.005v-.8712c0-1.8528 1.51587-3.36 3.37894-3.36h2.55402l1.49975-15.09694c.1751-1.76237 1.7597-3.05431 3.5317-2.88047l15.4559 1.51825c.5482.05383.9485.53921.8944 1.08426s-.5423.94194-1.0904.88934l-15.4559-1.51826c-.6788-.06755-1.2839.42775-1.3509 1.10193l-1.8606 18.73069h1.2717l1.1957-12.0379c.0886-.8918.6646-1.641 1.5034-1.9555 1.1145-.4178 2.0803-1.198 2.7194-2.197.4757-.7433 1.3224-1.15008 2.2102-1.06363l7.6484.75133c.5481.0539.9484.5393.8943 1.0843s-.542.9422-1.0904.8893zm-7.6185 15.0765 1.1775-11.854c.0962-.9685.7228-1.7842 1.6351-2.1263 1.0729-.4022 2.0034-1.1539 2.6188-2.1157.5176-.8087 1.4392-1.25089 2.403-1.15704l.0002.00001 7.6484.75143c.6608.0648 1.1435.65 1.0782 1.3071-.0652.6575-.6536 1.136-1.3141 1.0723l-.0004-.0001-7.6484-.7513-.0005-.0001c-.0601-.006-.1127.0223-.1377.0613-.8932 1.3959-2.2421 2.4857-3.7993 3.0696-.0452.0169-.0845.064-.0904.1239l-1.1542 11.619h4.5416l17.4626-25.48104c.5164-.753661 1.298-1.262716 2.199-1.4324975.9015-.1700725 1.816.019743 2.5738.5333995l20.3024 13.758038c1.5651 1.0608 1.9707 3.1897.904 4.746l-2.7735 4.0472h.3941c1.9765 0 3.584 1.5985 3.584 3.5639v1.1732c1.138.8405 1.8785 2.1867 1.8785 3.703v9.1768h.8423c1.3494 0 2.447 1.0912 2.4468 2.4331v10.5836c0 1.3418-1.0974 2.433-2.4468 2.433h-.8423v9.1767c0 2.5429-2.0801 4.6113-4.6373 4.6113h-55.64128c-2.55735 0-4.63742-2.0684-4.63742-4.6113v-33.8032c0-1.8112 1.0557-3.3797 2.58546-4.1335v-.7427c0-1.9654 1.60767-3.5639 3.58397-3.5639h2.36824l1.48153-14.91308c.1862-1.87446 1.8712-3.24822 3.7559-3.06333l15.4559 1.51826c.6608.06489 1.1435.65008 1.0782 1.30718-.0653.65754-.654 1.13559-1.3141 1.07225l-.0004-.00005-15.4559-1.51825-.0003-.00003c-.5655-.05628-1.0705.35661-1.1264.9191l-1.8384 18.50675zm23.5454-18.08586c.4998-.72922 1.3871-1.12204 2.2619-.99998 1.1796.16419 2.4034-.06049 3.4456-.63272.7756-.42585 1.7152-.38004 2.4523.11947l10.5248 7.13209c.737.4994 1.1236 1.3522 1.0087 2.2258-.1544 1.1742.0829 2.3889.6682 3.4206.4404.7765.3986 1.7187-.1088 2.4591l-3.1287 4.5652h1.5315l6.3814-9.3115c.3835-.5597.2376-1.3255-.3253-1.707l-20.3025-13.75809c-.2075-.14055-.4475-.21367-.6931-.21367-.0773 0-.155.00734-.2325.02188-.3243.06117-.6051.24412-.791.51528l-16.7582 24.4533h1.5315zm-12.6426 18.08586 12.4731-18.20068c.5435-.79278 1.5072-1.21997 2.4598-1.08708m-14.9329 19.28776h-1.0352l16.5397-24.13456c.1552-.22644.3888-.37864.6596-.42977.0653-.01225.1303-.01835.1945-.01835.2042 0 .404.06067.5777.17827l20.3024 13.75811c.4694.3181.5911.9571.2714 1.4237l-6.3204 9.2224h-1.0352l2.9102-4.2465c.551-.804.5969-1.8295.118-2.6741-.5635-.9932-.7922-2.1635-.6435-3.294.125-.9505-.2962-1.8784-1.0966-2.4207l-10.5247-7.13207c-.8005-.54243-1.823-.59282-2.6669-.12947-1.0033.55088-2.1824.76735-3.3181.60928m-.6426 2.31876-11.7687 17.1729h5.0546c.2905-4.2465 3.8553-7.6137 8.198-7.6137 4.343 0 7.9077 3.3672 8.1985 7.6135h3.3807l3.894-5.6821c.0757-.1108.0835-.2551.0196-.3678-.7959-1.403-1.1188-3.055-.9087-4.6519.0164-.1256-.0441-.255-.1543-.3298l-10.5249-7.13223c-.1104-.07476-.2536-.08359-.3652-.02216-1.4177.77843-3.0819 1.08369-4.6863.86053-.0152-.00204-.0304-.00313-.0456-.00313-.1138 0-.2248.05818-.2917.15589zm5.2735-.82259c-2.0563 1.14739-4.9765.87059-4.9818.87059-.0446 0-.0925.0236-.122.0667l-.061.0892h-.0003l-11.4892 16.7651h4.4773c.3894-4.2626 4.001-7.6137 8.3874-7.6137 4.3868 0 7.9982 3.3511 8.3878 7.6135h3.083l3.8328-5.5928c.034-.0497-1.3367-2.2842-.9228-4.9314m-10.5912-7.26719 10.5246 7.13209zm10.5246 7.13209c.0501.0341.0725.0901.0666.1351zm-5.993 28.8897c1.2282-2.5066 3.8159-4.2382 6.8034-4.2382h9.4817v-4.6459h-60.51715v24.3337h5.37759c.55072 0 .99714.4439.99714.9915 0 .5477-.44628.9916-.99714.9916h-5.37759v2.7516c0 1.3367 1.09364 2.4242 2.43797 2.4242h55.64128c1.3443 0 2.4379-1.0875 2.4379-2.4242v-2.7516h-48.7543c-.5507 0-.9971-.4439-.9971-.9916 0-.5476.4462-.9915.9971-.9915h48.7541v-4.6459h-9.4816c-4.1704 0-7.5633-3.3738-7.5633-7.5209 0-.7767.1191-1.526.3398-2.2313l.0008-.0028c.1035-.33.2306-.6498.3769-.9588.0045-.0096.0088-.0193.0131-.029.0054-.0121.0107-.0241.0164-.0359.0043-.0085.0089-.0166.013-.025zm-.2282.0035c.0034-.0072.0066-.0145.011-.0244l.0017-.0038c.0048-.0109.011-.0248.018-.0392l.0005-.0011.0006-.0012c.0031-.0061.0062-.012.0081-.0155l.0006-.0011c.0022-.0042.0029-.0054.0031-.006l.0003-.0005c1.261-2.5738 3.9186-4.3528 6.9877-4.3528h9.2766v-4.2381h-60.10702v23.9259h5.17256c.66396 0 1.20217.5352 1.20217 1.1954s-.53806 1.1955-1.20217 1.1955h-5.17256v2.5477c0 1.224 1.00184 2.2203 2.23294 2.2203h55.64128c1.2311 0 2.2328-.9962 2.2328-2.2203v-2.5477h-48.5492c-.664 0-1.2022-.5352-1.2022-1.1955 0-.6602.5381-1.1954 1.2022-1.1954h48.5491v-4.2381h-9.2766c-4.2836 0-7.7683-3.4651-7.7683-7.7248 0-.7971.1221-1.5664.3487-2.2906l.0001-.0004m.0003-.0009.0001-.0005.0001-.0004.0006-.002c.1064-.3394.237-.6678.3869-.9845m2.3161 5.8193c.9097 1.6633 2.6829 2.7938 4.7158 2.7938h12.5231c.0234 0 .0425-.0191.0425-.0421v-10.5835c0-.0229-.0192-.0421-.0425-.0421h-12.5231c-2.0329 0-3.8061 1.1305-4.7158 2.7938-.0413.0754-.0808.1522-.1187.2301-.0753.1555-.1433.315-.2035.4781-.2107.5713-.3259 1.1883-.3259 1.8319 0 .6435.115 1.2605.3258 1.8318.0601.1632.1282.3228.2036.4781.0379.0779.0774.1547.1187.2301zm-.3033-.1413c.0392.0806.0802.1603.1232.2387.9441 1.7261 2.7847 2.9003 4.8959 2.9003h12.5231c.1365 0 .2475-.1104.2475-.246v-10.5835c0-.1356-.1111-.246-.2475-.246h-12.5231c-2.1112 0-3.9518 1.1742-4.8959 2.9003-.043.0784-.084.1581-.1232.2387-.0782.1615-.1488.3272-.2114.4967-.2189.5934-.3385 1.2341-.3385 1.9021 0 .6679.1195 1.3086.3385 1.9021.0624.1696.1331.3353.2114.4966zm12.4169-24.1765c0-.6467-.5292-1.173-1.1795-1.1729h-2.0328l-.9854 1.4379h3.8434c.1196 0 .2377.005.3543.0142zm.205.5052c-.0679-.0085-.1362-.0157-.205-.0214-.1169-.0096-.2349-.0149-.3543-.0149h-4.2312l1.2648-1.8457h2.1412c.7636-.0001 1.3845.6175 1.3845 1.3768zm-16.5291-.0364c-.0062-.0683-.0135-.1363-.0219-.2039-.3796-3.0542-3.0041-5.4267-6.1767-5.4266-3.1724 0-5.7967 2.3724-6.1765 5.4266-.0084.0676-.0157.1356-.0219.2039zm-.2286-.2039c-.3783-2.9414-2.911-5.2228-5.97-5.2227-3.0588 0-5.5914 2.2813-5.9698 5.2227zm-37.91087-1.4381c-.65028 0-1.17949.5264-1.17949 1.1731v.2649h3.16746l.1428-1.438zm0-.2038c-.76354 0-1.38452.6176-1.38452 1.3769v.4688h3.55827l.1833-1.8457zm-1.53201 4.0328c-1.2311 0-2.23294.9962-2.23294 2.2203v2.5477h60.10702v-2.5477c0-1.2241-1.0017-2.2203-2.2328-2.2203zm0-.2039c-1.34433 0-2.43797 1.0875-2.43797 2.4242v2.7516h60.51715v-2.7516c0-1.3367-1.0936-2.4242-2.4379-2.4242z" fill-rule="evenodd"/><path d="m53.4687 44.4638c-2.2311 0-4.046 1.8049-4.046 4.0233s1.8149 4.0232 4.046 4.0232c2.231 0 4.0459-1.8048 4.0459-4.0232s-1.8149-4.0233-4.0459-4.0233zm0 6.0632c-1.1313 0-2.0516-.9151-2.0516-2.0399 0-1.1247.9203-2.04 2.0516-2.04 1.1312 0 2.0515.9151 2.0515 2.04s-.9203 2.0399-2.0515 2.0399z"/></g></svg>