<svg fill="none" height="25" viewBox="0 0 25 25" width="25" xmlns="http://www.w3.org/2000/svg"><path d="m20.5269 15.2688c-.8821-.8708-1.9833-.8708-2.8598 0-.6686.663-1.3372 1.326-1.9945 2.0002-.1798.1854-.3315.2247-.5507.1011-.4326-.2359-.8933-.427-1.309-.6854-1.9384-1.2192-3.5621-2.7868-5.00047-4.551-.71354-.8764-1.34842-1.8147-1.79228-2.87099-.0899-.2135-.07304-.35396.10113-.52813.6686-.64612 1.32034-1.3091 1.97769-1.97208.91583-.92142.91583-2.00016-.00561-2.92721-.52252-.52813-1.04503-1.04503-1.56755-1.57316-.53937-.53937-1.07312-1.08436-1.61811-1.618114-.8821-.859622-1.98331-.859622-2.85979.005618-.67421.662976-1.32034 1.342806-2.00579 1.994546-.63488.60118-.9551317 1.33719-1.0225531 2.19681-.1067504 1.399.2359751 2.71933.7191611 4.00596.988842 2.66315 2.494592 5.02855 4.320582 7.19725 2.4665 2.9328 5.41059 5.2532 8.85469 6.9275 1.5507.7529 3.1576 1.3316 4.9049 1.4271 1.2023.0674 2.2474-.236 3.0845-1.1743.5731-.6405 1.2192-1.2248 1.826-1.8372.899-.9102.9046-2.0114.0112-2.9103-1.0675-1.0732-2.1406-2.1407-3.2137-3.2082z" fill="#000"/></svg>