<svg width="40" height="40" viewBox="0 0 40 40" fill="none" xmlns="http://www.w3.org/2000/svg">
<path d="M40 0H0V40H40V0Z" fill="#61A8DE"/>
<path d="M31.4957 8.82958L4.74725 19.2532C3.88086 19.5908 3.93335 20.8341 4.82519 21.0974L11.6223 23.1046L14.1589 31.1537C14.4239 31.9945 15.4894 32.2494 16.1061 31.6196L19.6204 28.0313L26.5157 33.0927C27.3595 33.7121 28.5613 33.2519 28.7755 32.2273L33.3424 10.3934C33.566 9.32391 32.5138 8.43286 31.4957 8.82958ZM28.1422 13.6751L15.7177 24.6621C15.5938 24.7716 15.515 24.9232 15.4966 25.0875L15.0182 29.3398C15.0026 29.4785 14.8085 29.4969 14.7671 29.3636L12.799 23.0219C12.7089 22.7316 12.8264 22.417 13.0847 22.2568L27.7568 13.1571C28.0942 12.9476 28.4396 13.4121 28.1422 13.6751Z" fill="white"/>
</svg>
