<svg fill="none" height="40" viewBox="0 0 40 40" width="40" xmlns="http://www.w3.org/2000/svg"><path d="m37 0h-34c-1.65685 0-3 1.34315-3 3v34c0 1.6569 1.34315 3 3 3h34c1.6569 0 3-1.3431 3-3v-34c0-1.65685-1.3431-3-3-3z" fill="#61a8de"/><path d="m31.4967 8.82958-26.74847 10.42362c-.86639.3376-.81391 1.5809.07794 1.8442l6.79703 2.0072 2.5367 8.0491c.265.8408 1.3305 1.0957 1.9472.4659l3.5143-3.5883 6.8953 5.0614c.8438.6194 2.0456.1592 2.2598-.8654l4.5668-21.8339c.2237-1.06949-.8285-1.96054-1.8466-1.56382zm-3.3535 4.84552-12.4246 10.987c-.1238.1095-.2026.2611-.221.4254l-.4784 4.2523c-.0156.1387-.2097.1571-.2511.0238l-1.9681-6.3417c-.0901-.2903.0274-.6049.2857-.7651l14.6721-9.0998c.3374-.2094.6828.2551.3854.5181z" fill="#fff"/></svg>