<svg fill="none" height="72" viewBox="0 0 72 72" width="72" xmlns="http://www.w3.org/2000/svg"><g fill="#942fe5" stroke="#942fe5" stroke-width=".5"><path d="m63.5312 14.3898h2.1628c.7545 0 1.3663-.6118 1.3663-1.3663s-.6118-1.3663-1.3663-1.3663h-5.1919c-.7545 0-1.3663.6118-1.3663 1.3663v5.1919c0 .7545.6118 1.3663 1.3663 1.3663s1.3663-.6118 1.3663-1.3663v-1.5033c4.1456 5.55 6.399 12.284 6.399 19.2879 0 17.7924-14.475 32.2674-32.2674 32.2674s-32.26742-14.475-32.26742-32.2674 14.47502-32.26742 32.26742-32.26742c1.3159 0 2.6402.07993 3.9366.23746.748.09045 1.4302-.44227 1.5212-1.1914.0911-.749-.4423-1.43024-1.1914-1.52123-1.4054-.17079-2.8407-.25741-4.2664-.25741-9.3488 0-18.1382 3.64062-24.7487 10.2513-6.61068 6.6105-10.2513 15.3999-10.2513 24.7487s3.64062 18.1382 10.2513 24.7487c6.6105 6.6107 15.3999 10.2513 24.7487 10.2513s18.1382-3.6406 24.7487-10.2513c6.6107-6.6105 10.2513-15.3999 10.2513-24.7487 0-7.8891-2.6356-15.4627-7.4688-21.6102z"/><path d="m15.8194 21.6329c-.6376-.4036-1.4816-.2137-1.8853.4235-3.1191 4.9263-4.49988 10.8508-3.8879 16.6823.621 5.9179 3.2845 11.4987 7.5001 15.7144 5.0874 5.0874 11.77 7.6311 18.4528 7.6311s13.3654-2.5436 18.4529-7.6311c10.1749-10.1749 10.1749-26.7308 0-36.9056-4.2091-4.209-9.7807-6.8716-15.6888-7.4974-5.8207-.61686-11.7388.7531-16.6631 3.8569-.6384.4024-.8296 1.2461-.4273 1.8844.4023.6385 1.246.8296 1.8844.4274 9.2823-5.8505 21.1918-4.5097 28.9624 3.2609 9.1095 9.1095 9.1095 23.9316 0 33.041-9.1093 9.1096-23.9316 9.1096-33.041 0-7.6632-7.6632-9.024-19.8605-3.2356-29.0024.4035-.6376.214-1.4817-.4236-1.8854z"/><path d="m53.7628 37.3886h1.6849c.7545 0 1.3663-.6118 1.3663-1.3663s-.6118-1.3663-1.3663-1.3663h-1.6849c-.7545 0-1.3663.6118-1.3663 1.3663s.6117 1.3663 1.3663 1.3663z"/><path d="m15.1875 35.9779c0 .7544.6118 1.3663 1.3663 1.3663h1.6849c.7545 0 1.3663-.6119 1.3663-1.3663 0-.7545-.6118-1.3663-1.3663-1.3663h-1.6849c-.7545 0-1.3663.6117-1.3663 1.3663z"/><path d="m37.3888 18.2382v-1.6849c0-.7545-.6118-1.3663-1.3663-1.3663-.7544 0-1.3663.6118-1.3663 1.3663v1.6849c0 .7545.6119 1.3663 1.3663 1.3663.7545 0 1.3663-.6118 1.3663-1.3663z"/><path d="m34.6113 53.762v1.685c0 .7544.6119 1.3662 1.3663 1.3662.7545 0 1.3663-.6118 1.3663-1.3662v-1.685c0-.7544-.6118-1.3662-1.3663-1.3662-.7544 0-1.3663.6116-1.3663 1.3662z"/><path d="m29.1528 27.2194c-.5337-.5334-1.3985-.5334-1.9323 0-.5336.5335-.5336 1.3986 0 1.9323l4.6305 4.6305c-.3549.6613-.5567 1.4164-.5567 2.2179 0 2.5954 2.1115 4.7069 4.7069 4.7069s4.7069-2.1115 4.7069-4.7069c0-.8015-.202-1.5566-.5566-2.2179l9.3431-9.3431c.5335-.5336.5335-1.3987 0-1.9324-.5337-.5334-1.3986-.5334-1.9324 0l-9.3431 9.3431c-.6613-.3548-1.4164-.5566-2.2179-.5566s-1.5566.202-2.2179.5566zm8.8227 8.7807c0 1.0887-.8856 1.9743-1.9743 1.9743s-1.9743-.8856-1.9743-1.9743.8856-1.9743 1.9743-1.9743 1.9743.8856 1.9743 1.9743z"/><path d="m19.4787 19.4787c.2555-.2541.4016-.6066.4016-.9659 0-.3594-.1461-.7105-.4016-.966-.2541-.254-.6054-.4003-.9659-.4003-.3594 0-.7119.1462-.966.4003-.254.2541-.4003.6066-.4003.966 0 .3607.1462.7118.4003.9659.2541.254.6066.4004.966.4004.3605 0 .7118-.1464.9659-.4004z"/><path d="m45.4639 5.08244c.3609 0 .7134-.14497.9674-.40033.2541-.25413.4004-.6054.4004-.96597 0-.35933-.1462-.71183-.4004-.96596-.254-.254-.6065-.40033-.9674-.40033-.3593 0-.7118.1462-.9658.40033-.2541.25413-.4004.60663-.4004.96596 0 .36071.1461.71184.4004.96597.254.25536.6065.40033.9658.40033z"/></g></svg>