<svg fill="none" height="70" viewBox="0 0 70 70" width="70" xmlns="http://www.w3.org/2000/svg"><g fill="#942fe5"><path d="m35.2971 54.4633c-.573 0-1.0916-.3797-1.286-.9295-.1917-.5405-.0283-1.169.4016-1.5394.4497-.3873 1.106-.4398 1.6059-.1214.4775.3036.7295.8982.6185 1.4628-.1272.6461-.6949 1.1275-1.34 1.1275z"/><path d="m5.49574 29.3174c.34286.0678.68252.0985 1.01684.0985 1.76932 0 3.38964-.8545 4.46472-1.598.4304 1.0914.9463 2.1614 1.5439 3.1943.2158.3725.4396.7357.6719 1.0897-.2703-.011-.5442-.0028-.8209.0273-3.79657.4109-6.25856 4.755-6.36163 4.9399-.2916.523-.22377 1.1784.16769 1.627.13138.1504 3.09698 3.5016 6.63834 3.5016.1949 0 .392-.0103.5901-.0317 2.7862-.3014 4.854-2.7221 5.7977-4.0613 1.3576.8441 2.7915 1.465 4.2607 1.8293.1079.0268.2163.0394.3225.0394.6169 0 1.1766-.4305 1.3277-1.0716.1773-.7517-.2734-1.5083-1.0072-1.6904-3.5761-.8857-6.9422-3.6658-9.2349-7.6271-2.1837-3.773-3.1237-8.0799-2.6078-11.8912 1.3282-.877 4.2345-3.1385 4.6564-6.3573.5378-4.10459-3.2208-7.79829-3.3811-7.95311-.4272-.41357-1.0649-.5011-1.5834-.21772-.1944.10613-4.77128 2.65375-5.30907 6.75774-.42831 3.26699 1.86652 6.27469 2.90098 7.44319-.16449 1.25-.19653 2.5427-.102 3.8496-.64835-.4655-1.39442-.8342-2.23662-1.0011-3.34425-.6619-6.439633 2.2167-6.781428 2.5471-.42777735.413-.549542 1.0602-.302809 1.6067.197067.4371 2.024067 4.2878 5.369387 4.9492zm7.62366 10.0636c-1.5018.1619-3.1376-.9289-4.14537-1.8097.80643-1.0777 2.18377-2.494 3.68547-2.6565 1.5007-.1619 3.1339.9262 4.1416 1.8058-.7386.993-2.0983 2.4891-3.6817 2.6604zm-3.76085-29.0857c.22431-1.71341 1.83285-3.23422 3.00615-4.08817.9127 1.14225 2.0716 3.04271 1.8473 4.75557-.2243 1.7111-1.8286 3.2298-3.0013 4.0854-.8342-1.04-2.08927-2.9443-1.85215-4.7528zm-2.666 12.6692c1.21231.2396 2.25371 1.465 2.88069 2.4371-.92925.657-2.35037 1.4037-3.55947 1.1657-1.21284-.2401-2.25424-1.4655-2.88122-2.4376.93619-.6641 2.34717-1.4054 3.56-1.1652z"/><path d="m46.2124 39.9734c.1063 0 .2147-.0126.3226-.0394 1.4692-.3643 2.9031-.9852 4.2607-1.8293.9437 1.3392 3.0115 3.7599 5.7977 4.0613.1981.0214.3952.0317.5901.0317 3.5413 0 6.5069-3.3512 6.6383-3.5016.3915-.4486.4593-1.104.1677-1.627-.1031-.1849-2.5656-4.529-6.3616-4.9399-.2767-.0295-.5507-.0377-.8214-.0268.2323-.3539.4566-.7177.6724-1.0902.5976-1.0329 1.1135-2.1029 1.5439-3.1943 1.0751.7435 2.6954 1.598 4.4647 1.598.3343 0 .6745-.0307 1.0168-.0985 3.3454-.6614 5.1724-4.5121 5.3694-4.9492.2473-.5465.125-1.1931-.3023-1.6067-.3423-.3299-3.4371-3.2096-6.7819-2.5471-.8427.1669-1.5888.5356-2.2366 1.0011.0945-1.3074.0619-2.5996-.1026-3.8496 1.0345-1.169 3.3293-4.1762 2.9016-7.44319-.5378-4.10454-5.1152-6.65161-5.3096-6.75774-.5186-.28338-1.1562-.19585-1.5835.21772-.1602.15482-3.9189 3.84852-3.3811 7.95311.4219 3.2188 3.3288 5.4798 4.6564 6.3567.5159 3.8119-.424 8.1183-2.6078 11.8913-2.2927 3.9618-5.6583 6.7413-9.2343 7.6276-.7338.1821-1.1851.9387-1.0078 1.6904.1517.6411.7114 1.0716 1.3282 1.0716zm17.0951-17.0089c1.2129-.2397 2.6244.5005 3.5595 1.1646-.6243.9634-1.6716 2.1992-2.8807 2.4382-1.2123.2397-2.6243-.5005-3.5595-1.1641.6243-.9639 1.6716-2.1997 2.8807-2.4387zm-5.9664 11.9503c1.5023.1625 2.8791 1.5794 3.6849 2.656-1.0083.8818-2.6446 1.9721-4.1453 1.8102-1.5023-.1625-2.8796-1.5799-3.6855-2.6565 1.0083-.8819 2.6441-1.9721 4.1459-1.8097zm-1.5531-23.9521c-.2243-1.71341.9352-3.61442 1.8473-4.75557 1.1744.85504 2.7819 2.3753 3.0068 4.08817.2243 1.7111-.932 3.6094-1.8436 4.7511-1.0718-.7774-2.7733-2.2752-3.0105-4.0837z"/><path d="m69.8142 44.8214c-.2446-.4316-.6948-.6969-1.1818-.6969h-28.0032v-32.9665c0-2.77246-2.9132-4.48857-5.6124-4.48857-.9826 0-1.8238.21828-2.4999.64826l-8.1085 5.03401c-1.5557.9562-2.4481 2.6111-2.4481 4.5411 0 2.5525 1.6753 5.3075 4.3819 5.3075.4828 0 1.1888-.0974 1.9552-.5274v22.4516h-26.93027c-.487059 0-.937267.2653-1.181864.6969-.2445969.4311-.2472672.9634-.006409 1.3967l3.805143 6.8442-3.804609 6.8441c-.2413922.4333-.2387219.9656.005875 1.3967.244597.4316.695339.6969 1.181864.6969h67.26527c.487 0 .9372-.2653 1.1818-.6969.2446-.4311.2473-.9634.0064-1.3967l-3.8051-6.8441 3.8051-6.8442c.2409-.4333.2382-.9656-.0064-1.3967zm-39.4853-26.8838c-.4336-.2472-.964-.2341-1.3859.0339l-1.7837 1.1346c-.0128.0082-.0251.0159-.0374.0247-.3429.2341-.6355.2691-.7797.2691-.9432 0-1.6476-1.3239-1.6476-2.5071 0-.6614.1944-1.5701 1.1258-2.1423l8.1208-5.04164c.0054-.00328.0107-.00657.0161-.01039.2328-.1488.5992-.22813 1.059-.22813 1.4526 0 2.878.83586 2.878 1.68766v32.9665h-6.8631v-24.9631c0-.5082-.2686-.9765-.7023-1.2238zm-23.58331 35.8178c.23872-.4295.23872-.9563 0-1.3863l-3.02648-5.4437h10.54809v12.2737h-10.54809zm10.25601.7073h12.1385c.7546 0 1.3672-.6269 1.3672-1.4004 0-.7736-.6126-1.4005-1.3672-1.4005h-12.1385v-4.7364h35.9963v4.7364h-11.4923c-.7552 0-1.3672.6269-1.3672 1.4005 0 .7735.612 1.4004 1.3672 1.4004h11.4923v4.7364h-35.9963zm46.2523-2.0936c-.2387.43-.2387.9568 0 1.3863l3.0265 5.4437h-10.5481v-12.2737h10.5481z"/></g></svg>