<svg fill="none" height="40" viewBox="0 0 40 40" width="40" xmlns="http://www.w3.org/2000/svg"><path d="m37 0h-34c-1.65685 0-3 1.34315-3 3v34c0 1.6569 1.34315 3 3 3h34c1.6569 0 3-1.3431 3-3v-34c0-1.65685-1.3431-3-3-3z" fill="#7d3daf"/><g fill="#fff"><path d="m32.6512 12.8935-.0079-.0316c-.639-2.5831-3.5197-5.35488-6.1651-5.93154l-.0298-.00614c-4.2789-.81628-8.6174-.81628-12.8953 0l-.0308.00614c-2.6445.57666-5.52516 3.34844-6.16501 5.93154l-.00702.0316c-.78994 3.6074-.78994 7.2657 0 10.8731l.00702.0316c.61255 2.4729 3.27871 5.1173 5.82541 5.8446v2.8835c0 1.0435 1.2718 1.5561 1.995.8031l2.9215-3.0368c.6336.0354 1.2675.0552 1.9015.0552 2.1539 0 4.3087-.2037 6.4477-.6118l.0298-.0061c2.6454-.5767 5.5261-3.3485 6.1651-5.9316l.0079-.0316c.7899-3.6075.7899-7.2658 0-10.8732zm-2.3119 10.35c-.4266 1.6852-2.6139 3.7803-4.3517 4.1674-2.2751.4326-4.5682.6175-6.8591.5541-.0455-.0013-.0893.0164-.1211.049-.3251.3337-2.1331 2.1897-2.1331 2.1897l-2.2689 2.3286c-.1659.1729-.4573.0553-.4573-.1834v-4.7767c0-.0789-.0563-.146-.1338-.1612-.0005 0-.0009-.0001-.0013-.0002-1.7379-.3871-3.9243-2.4822-4.35172-4.1674-.71095-3.2607-.71095-6.5662 0-9.8268.42742-1.6853 2.61382-3.78035 4.35172-4.16742 3.9734-.75571 8.0021-.75571 11.9746 0 1.7387.38707 3.9251 2.48212 4.3517 4.16742.7117 3.2607.7117 6.5662 0 9.8269z"/><path d="m23.7806 25.4487c-.2671-.0811-.5218-.1356-.7582-.2337-2.4502-1.0166-4.7052-2.3281-6.4915-4.3385-1.0157-1.1432-1.8108-2.4339-2.4828-3.7998-.3187-.6477-.5873-1.3208-.8611-1.9896-.2496-.6098.1181-1.2398.5052-1.6993.3633-.4312.8308-.7612 1.3371-1.0045.3951-.1898.7849-.0803 1.0735.2546.6239.7241 1.1969 1.4852 1.661 2.3246.2853.5163.207 1.1473-.3101 1.4987-.1257.0854-.2403.1856-.3573.2821-.1027.0845-.1994.1699-.2698.2844-.1286.2094-.1348.4564-.0519.6841.6377 1.7526 1.7126 3.1154 3.4767 3.8494.2822.1175.5657.2542.8909.2163.5447-.0636.721-.661 1.1026-.9731.373-.305.8497-.3091 1.2515-.0548.4019.2544.7916.5274 1.1788.8034.3801.2708.7586.5358 1.1093.8446.3371.2969.4532.6864.2634 1.0894-.3476.738-.8533 1.3519-1.5829 1.7438-.206.1105-.452.1464-.6844.2179.2324-.0715-.2671-.0812 0 0z"/><path d="m20.0075 11.5394c3.205.0898 5.8373 2.2168 6.4014 5.3853.0961.5399.1304 1.0919.1731 1.6398.018.2305-.1125.4495-.3613.4525-.2569.0031-.3725-.2119-.3891-.4423-.033-.456-.056-.9141-.1188-1.3664-.3318-2.3875-2.2355-4.3627-4.6119-4.7865-.3576-.0638-.7236-.0806-1.0858-.1186-.229-.024-.529-.0379-.5797-.3226-.0426-.2386.1589-.4286.3861-.4408.0618-.0035.1239-.0006.186-.0004-.0621-.0002 3.205.0898 0 0z"/><path d="m24.8773 17.8533c-.0052.04-.0081.1341-.0315.2228-.085.3217-.5729.362-.6852.0373-.0333-.0964-.0383-.206-.0385-.3098-.0011-.6788-.1486-1.3569-.491-1.9475-.3518-.6071-.8894-1.1174-1.52-1.4261-.3813-.1867-.7936-.3028-1.2115-.3719-.1826-.0302-.3672-.0486-.5507-.0741-.2225-.0309-.3412-.1726-.3307-.3918.0099-.2054.1599-.3531.3838-.3405.7355.0418 1.4459.2008 2.0998.547 1.3297.7042 2.0893 1.8157 2.311 3.2999.01.0673.0262.1339.0313.2014.0125.1667.0204.3335.0332.5533-.0128-.2198-.0052.04 0 0z"/><path d="m22.8833 17.7758c-.2681.0048-.4116-.1436-.4393-.3895-.0192-.1714-.0344-.3451-.0753-.5118-.0806-.3285-.2551-.6329-.5314-.8341-.1305-.0951-.2783-.1643-.4331-.209-.1967-.0568-.4009-.0412-.5972-.0893-.2131-.0522-.331-.2247-.2974-.4247.0304-.1819.2074-.324.4062-.3096 1.2426.0897 2.1307.7321 2.2574 2.1949.009.1033.0195.2124-.0034.3111-.0392.169-.1644.2537-.2865.262.1221-.0083-.2681.0048 0 0z"/></g></svg>