<svg fill="none" height="40" viewBox="0 0 40 40" width="40" xmlns="http://www.w3.org/2000/svg"><path d="m37 0h-34c-1.65685 0-3 1.34315-3 3v34c0 1.6569 1.34315 3 3 3h34c1.6569 0 3-1.3431 3-3v-34c0-1.65685-1.3431-3-3-3z" fill="#1bd741"/><g fill="#fff"><path d="m6.01172 34.0034 1.95931-6.9589c-1.25995-2.1404-1.92333-4.5758-1.92333-7.0777 0-7.7032 6.267-13.97022 13.9703-13.97022 7.7032 0 13.9701 6.26702 13.9701 13.97022 0 7.7033-6.2669 13.9703-13.9701 13.9703-2.4003 0-4.7506-.6144-6.8299-1.7811zm7.54328-4.3889.4276.2611c1.8129 1.1067 3.8999 1.6917 6.0354 1.6917 6.3965 0 11.6003-5.204 11.6003-11.6005s-5.2038-11.6004-11.6003-11.6004-11.60048 5.2039-11.60048 11.6004c0 2.2288.63345 4.3932 1.83168 6.2591l.288.4484-1.1283 4.0075z"/><path d="m16.0939 13.4646-.9065-.0494c-.2848-.0155-.5641.0796-.7793.2666-.4394.3816-1.1421 1.1194-1.358 2.0809-.3218 1.4335.1756 3.1889 1.4629 4.9444 1.2874 1.7554 3.6864 4.5641 7.9286 5.7636 1.3671.3866 2.4424.126 3.2721-.4048.6572-.4203 1.1102-1.095 1.2734-1.8577l.1448-.676c.046-.2149-.0631-.4329-.2627-.5249l-3.0637-1.4122c-.1989-.0916-.4347-.0337-.5685.1397l-1.2027 1.5591c-.0908.1178-.2464.1645-.3868.1152-.8237-.2895-3.5827-1.445-5.0965-4.3611-.0657-.1265-.0494-.28.0438-.3878l1.1494-1.3298c.1175-.1358.1471-.3267.0766-.4917l-1.3206-3.0896c-.0704-.1645-.2279-.2747-.4063-.2845z"/></g></svg>