<svg fill="none" height="40" viewBox="0 0 40 40" width="40" xmlns="http://www.w3.org/2000/svg"><rect height="39" rx="2.5" stroke="#fff" width="39" x=".5" y=".5"/><path d="m27.6088 26.0181h-1.4488l.0067-.8288c0-.3683.3072-.6696.6823-.6696h.0924c.3761 0 .6841.3013.6841.6696zm-5.4343-1.7761c-.3676 0-.6682.2433-.6682.5411v4.0309c0 .2973.3006.5399.6682.5399.369 0 .67-.2426.67-.5399v-4.0309c0-.2981-.301-.5411-.67-.5411zm8.8255-2.2547v7.6682c0 1.8394-1.6195 3.3445-3.5992 3.3445h-14.8013c-1.9803 0-3.5995-1.5051-3.5995-3.3445v-7.6682c0-1.8394 1.6192-3.3448 3.5995-3.3448h14.8013c1.9797 0 3.5992 1.5054 3.5992 3.3448zm-17.4131 8.5008-.0012-8.0776 1.8348.0006v-1.1969l-4.8911-.0072v1.1766l1.5268.0044v8.1001zm5.5-6.8744h-1.5298v4.3134c0 .624.0384.936-.0023 1.0461-.1244.3345-.6835.6898-.9014.0361-.037-.1144-.0044-.4596-.005-1.0524l-.0062-4.3432h-1.5212l.0047 4.275c.0012.6552-.015 1.1437.0053 1.3661.0372.3921.024.8491.3933 1.1102.6882.4883 2.0073-.0728 2.3373-.7707l-.0029.8906 1.2284.0015zm4.8936 4.9394-.0032-3.59c-.0012-1.3682-1.0404-2.1875-2.4511-1.0804l.0062-2.6691-1.528.0023-.0073 9.2127 1.2566-.0179.1144-.5737c1.6054 1.4505 2.6148.4564 2.6124-1.2839zm4.7875-.4758-1.1469.0061c-.0006.0448-.0024.0965-.0029.1528v.6304c0 .3374-.2831.6121-.6269.6121h-.2247c-.3444 0-.6274-.2747-.6274-.6121v-.0699-.6934-.8947h2.6265v-.9735c0-.7115-.0185-1.4228-.0783-1.8295-.1881-1.2868-2.022-1.491-2.9483-.8323-.2907.2057-.5128.481-.6418.8507-.1303.3701-.1951.8757-.1951 1.5179v2.1406c.0006 3.5586 4.3894 3.0556 3.8658-.0052zm-5.8837-11.6214c.079.1889.2016.3421.3679.4576.1643.1138.3743.171.626.171.2205 0 .4159-.0586.586-.1797.1696-.1204.3124-.3004.4292-.5405l-.0291.5911h1.7052v-7.14162h-1.3423v5.55822c0 .301-.2517.5474-.5594.5474-.3059 0-.5585-.2464-.5585-.5474v-5.55822h-1.401v4.81692c0 .6136.0115 1.0227.03 1.2301.019.206.0671.4036.146.5951zm-5.1673-4.0335c0-.6855.0581-1.2208.1733-1.6068.1162-.3845.3248-.6936.6269-.92671.3013-.23429.687-.35158 1.156-.35158.3946 0 .7325.07627 1.0147.22562.2836.15023.5024.34527.6541.58587.1546.2415.2596.4897.3156.7436.0572.2574.0854.6457.0854 1.1694v1.8062c0 .6624-.027 1.1497-.0795 1.4591-.0519.3103-.1634.598-.3362.8679-.1701.2669-.3898.4665-.6562.5939-.2692.1286-.5772.1915-.9251.1915-.3887 0-.7161-.0528-.9859-.1632-.2708-.1098-.4799-.2753-.6289-.4951-.1505-.2202-.2564-.4883-.3203-.8008-.0643-.3123-.0948-.7821-.0948-1.4081zm1.3355 2.8369c0 .4045.3057.7347.6779.7347.3726 0 .677-.3302.677-.7347v-3.8017c0-.4039-.3044-.7341-.677-.7341-.3722 0-.6779.3302-.6779.7341zm-4.7191 1.9197h1.6086l.0018-5.4773 1.9008-4.69217h-1.7594l-1.0106 3.48517-1.0249-3.4947h-1.7412l2.0222 4.7043z" fill="#fff"/></svg>