<svg width="40" height="40" viewBox="0 0 40 40" fill="none" xmlns="http://www.w3.org/2000/svg">
<rect x="0.5" y="0.5" width="39" height="39" stroke="white"/>
<path d="M28.4282 26.3715H26.9465L26.9534 25.5273C26.9534 25.1521 27.2675 24.8452 27.6512 24.8452H27.7457C28.1303 24.8452 28.4453 25.1521 28.4453 25.5273L28.4282 26.3715ZM22.8704 24.5624C22.4945 24.5624 22.187 24.8102 22.187 25.1136V29.2193C22.187 29.5221 22.4945 29.7693 22.8704 29.7693C23.2478 29.7693 23.5556 29.5221 23.5556 29.2193V25.1136C23.5556 24.8099 23.2478 24.5624 22.8704 24.5624ZM31.8965 22.2657V30.0765C31.8965 31.95 30.2402 33.4831 28.2155 33.4831H13.0778C11.0525 33.4831 9.39648 31.95 9.39648 30.0765V22.2657C9.39648 20.3922 11.0525 18.8588 13.0778 18.8588H28.2155C30.2402 18.8588 31.8965 20.3922 31.8965 22.2657ZM14.0876 30.9245L14.0864 22.6968L15.9629 22.6974V21.4783L10.9607 21.471V22.6695L12.5222 22.6739V30.9245H14.0876ZM19.7126 23.9224H18.1481V28.3159C18.1481 28.9515 18.1874 29.2693 18.1457 29.3814C18.0185 29.7222 17.4467 30.0841 17.2238 29.4182C17.186 29.3017 17.2193 28.9501 17.2187 28.3463L17.2124 23.9224H15.6566L15.6614 28.2768C15.6626 28.9442 15.6461 29.4418 15.6668 29.6684C15.7049 30.0677 15.6914 30.5332 16.0691 30.7992C16.7729 31.2965 18.122 30.725 18.4595 30.0141L18.4565 30.9213L19.7129 30.9228L19.7126 23.9224ZM24.7175 28.9536L24.7142 25.2969C24.713 23.9033 23.6501 23.0688 22.2074 24.1964L22.2137 21.4777L20.651 21.4801L20.6435 30.8639L21.9287 30.8457L22.0457 30.2613C23.6876 31.7387 24.7199 30.7262 24.7175 28.9536ZM29.6138 28.469L28.4408 28.4751C28.4402 28.5208 28.4384 28.5734 28.4378 28.6308V29.2729C28.4378 29.6166 28.1483 29.8964 27.7967 29.8964H27.5669C27.2147 29.8964 26.9252 29.6166 26.9252 29.2729V29.2017V28.4954V27.5841H29.6114V26.5925C29.6114 25.8677 29.5925 25.1433 29.5313 24.729C29.339 23.4183 27.4634 23.2103 26.516 23.8812C26.2187 24.0907 25.9916 24.3711 25.8596 24.7478C25.7264 25.1247 25.6601 25.6397 25.6601 26.2938V28.4743C25.6607 32.0989 30.1493 31.5866 29.6138 28.469ZM23.5964 16.6316C23.6771 16.824 23.8025 16.98 23.9726 17.0977C24.1406 17.2136 24.3554 17.2719 24.6128 17.2719C24.8384 17.2719 25.0382 17.2122 25.2122 17.0889C25.3856 16.9662 25.5317 16.7829 25.6511 16.5383L25.6214 17.1404H27.3653V9.86606H25.9925V15.5276C25.9925 15.8342 25.7351 16.0852 25.4204 16.0852C25.1075 16.0852 24.8492 15.8342 24.8492 15.5276V9.86606H23.4164V14.7725C23.4164 15.3975 23.4281 15.8142 23.447 16.0254C23.4665 16.2352 23.5157 16.4365 23.5964 16.6316ZM18.3116 12.5232C18.3116 11.8249 18.371 11.2797 18.4889 10.8865C18.6077 10.4949 18.821 10.18 19.13 9.94257C19.4381 9.70392 19.8326 9.58446 20.3123 9.58446C20.7158 9.58446 21.0614 9.66214 21.35 9.81427C21.6401 9.96728 21.8639 10.1659 22.019 10.411C22.1771 10.657 22.2845 10.9098 22.3418 11.1684C22.4003 11.4306 22.4291 11.8261 22.4291 12.3596V14.1993C22.4291 14.874 22.4015 15.3704 22.3478 15.6856C22.2947 16.0016 22.1807 16.2947 22.004 16.5695C21.83 16.8414 21.6053 17.0447 21.3329 17.1745C21.0575 17.3055 20.7425 17.3696 20.3867 17.3696C19.9892 17.3696 19.6544 17.3158 19.3784 17.2033C19.1015 17.0915 18.8876 16.9229 18.7352 16.699C18.5813 16.4748 18.473 16.2017 18.4076 15.8833C18.3419 15.5652 18.3107 15.0868 18.3107 14.4491L18.3116 12.5232ZM19.6775 15.4128C19.6775 15.8248 19.9901 16.1611 20.3708 16.1611C20.7518 16.1611 21.0632 15.8248 21.0632 15.4128V11.5404C21.0632 11.129 20.7518 10.7927 20.3708 10.7927C19.9901 10.7927 19.6775 11.129 19.6775 11.5404V15.4128ZM14.8511 17.3681H16.4963L16.4981 11.789L18.4421 7.00971H16.6427L15.6092 10.5596L14.561 7H12.7802L14.8484 11.7917L14.8511 17.3681Z" fill="white"/>
</svg>
