<svg width="320" height="1035" viewBox="0 0 320 1035" fill="none" preserveAspectRatio="none" xmlns="http://www.w3.org/2000/svg">
<g filter="url(#filter0_d)">
<path d="M7.03321e-06 4C74.3356 20.5627 249.019 35.3598 319.934 16.8535C319.934 82.802 319.934 914.92 320 1023.83C222.301 1041 34.6972 981.446 0.000372339 1011.95C0.000365106 983.838 -5.92898e-05 38.7588 7.03321e-06 4Z" fill="#942FE5"/>
</g>
<g filter="url(#filter1_d)">
<path d="M0 7C80.1247 23.3779 241.363 44.4999 320 25.5471C320 25.5471 320 964.04 320 1016.37C227.317 1035.87 35.1049 968.996 3.25521e-05 999.242C2.49809e-05 932.7 0 13.4905 0 7Z" fill="white"/>
</g>
<defs>
<filter id="filter0_d" x="-6" y="0" width="332" height="1035" filterUnits="userSpaceOnUse" color-interpolation-filters="sRGB">
<feFlood flood-opacity="0" result="BackgroundImageFix"/>
<feColorMatrix in="SourceAlpha" type="matrix" values="0 0 0 0 0 0 0 0 0 0 0 0 0 0 0 0 0 0 127 0"/>
<feOffset dy="2"/>
<feGaussianBlur stdDeviation="3"/>
<feColorMatrix type="matrix" values="0 0 0 0 0 0 0 0 0 0 0 0 0 0 0 0 0 0 0.25 0"/>
<feBlend mode="normal" in2="BackgroundImageFix" result="effect1_dropShadow"/>
<feBlend mode="normal" in="SourceGraphic" in2="effect1_dropShadow" result="shape"/>
</filter>
<filter id="filter1_d" x="-6" y="3" width="332" height="1025" filterUnits="userSpaceOnUse" color-interpolation-filters="sRGB">
<feFlood flood-opacity="0" result="BackgroundImageFix"/>
<feColorMatrix in="SourceAlpha" type="matrix" values="0 0 0 0 0 0 0 0 0 0 0 0 0 0 0 0 0 0 127 0"/>
<feOffset dy="2"/>
<feGaussianBlur stdDeviation="3"/>
<feColorMatrix type="matrix" values="0 0 0 0 0 0 0 0 0 0 0 0 0 0 0 0 0 0 0.25 0"/>
<feBlend mode="normal" in2="BackgroundImageFix" result="effect1_dropShadow"/>
<feBlend mode="normal" in="SourceGraphic" in2="effect1_dropShadow" result="shape"/>
</filter>
</defs>
</svg>
