<svg width="1359" height="1119" preserveAspectRatio="none slice" viewBox="0 0 1359 1119" fill="none" xmlns="http://www.w3.org/2000/svg">
<g filter="url(#filter0_d)">
<path d="M4.83742 0.220409C318.441 69.79 1021.78 102.426 1354.56 54.2098C1354.56 331.218 1354.56 637.718 1354.84 1095.17C942.673 1167.3 151.216 953.666 4.83896 1081.78C4.83893 963.71 4.83714 146.22 4.83742 0.220409Z" fill="#942FE5"/>
</g>
<g filter="url(#filter1_d)">
<path d="M4.8374 9.72041C342.863 78.7377 1023.09 167.747 1354.84 87.8786C1354.84 87.8786 1354.84 864.342 1354.84 1084.86C963.833 1167.04 152.936 885.225 4.83754 1012.68C4.83751 732.27 4.8374 37.0715 4.8374 9.72041Z" fill="url(#paint0_radial)"/>
</g>
<defs>
<filter id="filter0_d" x="0.837402" y="0.220409" width="1358" height="1118.23" filterUnits="userSpaceOnUse" color-interpolation-filters="sRGB">
<feFlood flood-opacity="0" result="BackgroundImageFix"/>
<feColorMatrix in="SourceAlpha" type="matrix" values="0 0 0 0 0 0 0 0 0 0 0 0 0 0 0 0 0 0 127 0"/>
<feOffset dy="4"/>
<feGaussianBlur stdDeviation="2"/>
<feColorMatrix type="matrix" values="0 0 0 0 0 0 0 0 0 0 0 0 0 0 0 0 0 0 0.25 0"/>
<feBlend mode="normal" in2="BackgroundImageFix" result="effect1_dropShadow"/>
<feBlend mode="normal" in="SourceGraphic" in2="effect1_dropShadow" result="shape"/>
</filter>
<filter id="filter1_d" x="0.837402" y="9.72041" width="1358" height="1098.44" filterUnits="userSpaceOnUse" color-interpolation-filters="sRGB">
<feFlood flood-opacity="0" result="BackgroundImageFix"/>
<feColorMatrix in="SourceAlpha" type="matrix" values="0 0 0 0 0 0 0 0 0 0 0 0 0 0 0 0 0 0 127 0"/>
<feOffset dy="4"/>
<feGaussianBlur stdDeviation="2"/>
<feColorMatrix type="matrix" values="0 0 0 0 0 0 0 0 0 0 0 0 0 0 0 0 0 0 0.25 0"/>
<feBlend mode="normal" in2="BackgroundImageFix" result="effect1_dropShadow"/>
<feBlend mode="normal" in="SourceGraphic" in2="effect1_dropShadow" result="shape"/>
</filter>
<radialGradient id="paint0_radial" cx="0" cy="0" r="1" gradientUnits="userSpaceOnUse" gradientTransform="translate(684.642 383.136) rotate(45.2248) scale(1565.47 2308.74)">
<stop offset="0.0662339" stop-color="#414141"/>
<stop offset="1"/>
</radialGradient>
</defs>
</svg>
