<svg width="1615" height="783" preserveAspectRatio="none slice" viewBox="0 0 1615 783" fill="none" xmlns="http://www.w3.org/2000/svg">
<g filter="url(#filter0_d)">
<path d="M1040 726.527C1362 616.027 1611 0.526855 1611 0.526855H142L103.5 721.027C103.5 721.027 718 837.027 1040 726.527Z" fill="#942FE5"/>
</g>
<g filter="url(#filter1_d)">
<path d="M1005 719.034C1327 609.674 1576 0.526855 1576 0.526855H107V719.034C107 719.034 683 828.393 1005 719.034Z" fill="url(#paint0_radial)"/>
</g>
<path d="M990.5 719.963C1312.5 610.462 1561.5 0.526855 1561.5 0.526855H92.5001L54.0001 714.513C54.0001 714.513 668.5 829.464 990.5 719.963Z" fill="#942FE5"/>
<g filter="url(#filter2_d)">
<path d="M955.5 712.602C1277.5 604.222 1526.5 0.526855 1526.5 0.526855H57.5001V712.602C57.5001 712.602 633.5 820.983 955.5 712.602Z" fill="url(#paint1_radial)"/>
</g>
<path d="M937.5 713.523C1259.5 605.002 1508.5 0.526855 1508.5 0.526855H39.5001L4.50916 706.285V708.483C4.50916 708.483 615.5 822.044 937.5 713.523Z" fill="#942FE5"/>
<g filter="url(#filter3_d)">
<path d="M902.5 706.286C1224.5 598.867 1473.5 0.526367 1473.5 0.526367H4.50012V706.286C4.50012 706.286 580.5 813.705 902.5 706.286Z" fill="url(#paint2_radial)"/>
</g>
<defs>
<filter id="filter0_d" x="99.5001" y="0.526855" width="1515.5" height="781.725" filterUnits="userSpaceOnUse" color-interpolation-filters="sRGB">
<feFlood flood-opacity="0" result="BackgroundImageFix"/>
<feColorMatrix in="SourceAlpha" type="matrix" values="0 0 0 0 0 0 0 0 0 0 0 0 0 0 0 0 0 0 127 0"/>
<feOffset dy="4"/>
<feGaussianBlur stdDeviation="2"/>
<feColorMatrix type="matrix" values="0 0 0 0 0 0 0 0 0 0 0 0 0 0 0 0 0 0 0.25 0"/>
<feBlend mode="normal" in2="BackgroundImageFix" result="effect1_dropShadow"/>
<feBlend mode="normal" in="SourceGraphic" in2="effect1_dropShadow" result="shape"/>
</filter>
<filter id="filter1_d" x="103" y="0.526855" width="1477" height="775.111" filterUnits="userSpaceOnUse" color-interpolation-filters="sRGB">
<feFlood flood-opacity="0" result="BackgroundImageFix"/>
<feColorMatrix in="SourceAlpha" type="matrix" values="0 0 0 0 0 0 0 0 0 0 0 0 0 0 0 0 0 0 127 0"/>
<feOffset dy="4"/>
<feGaussianBlur stdDeviation="2"/>
<feColorMatrix type="matrix" values="0 0 0 0 0 0 0 0 0 0 0 0 0 0 0 0 0 0 0.25 0"/>
<feBlend mode="normal" in2="BackgroundImageFix" result="effect1_dropShadow"/>
<feBlend mode="normal" in="SourceGraphic" in2="effect1_dropShadow" result="shape"/>
</filter>
<filter id="filter2_d" x="53.5001" y="0.526855" width="1477" height="768.245" filterUnits="userSpaceOnUse" color-interpolation-filters="sRGB">
<feFlood flood-opacity="0" result="BackgroundImageFix"/>
<feColorMatrix in="SourceAlpha" type="matrix" values="0 0 0 0 0 0 0 0 0 0 0 0 0 0 0 0 0 0 127 0"/>
<feOffset dy="4"/>
<feGaussianBlur stdDeviation="2"/>
<feColorMatrix type="matrix" values="0 0 0 0 0 0 0 0 0 0 0 0 0 0 0 0 0 0 0.25 0"/>
<feBlend mode="normal" in2="BackgroundImageFix" result="effect1_dropShadow"/>
<feBlend mode="normal" in="SourceGraphic" in2="effect1_dropShadow" result="shape"/>
</filter>
<filter id="filter3_d" x="0.500122" y="0.526367" width="1477" height="761.501" filterUnits="userSpaceOnUse" color-interpolation-filters="sRGB">
<feFlood flood-opacity="0" result="BackgroundImageFix"/>
<feColorMatrix in="SourceAlpha" type="matrix" values="0 0 0 0 0 0 0 0 0 0 0 0 0 0 0 0 0 0 127 0"/>
<feOffset dy="4"/>
<feGaussianBlur stdDeviation="2"/>
<feColorMatrix type="matrix" values="0 0 0 0 0 0 0 0 0 0 0 0 0 0 0 0 0 0 0.25 0"/>
<feBlend mode="normal" in2="BackgroundImageFix" result="effect1_dropShadow"/>
<feBlend mode="normal" in="SourceGraphic" in2="effect1_dropShadow" result="shape"/>
</filter>
<radialGradient id="paint0_radial" cx="0" cy="0" r="1" gradientUnits="userSpaceOnUse" gradientTransform="translate(377.001 279.514) rotate(20.5093) scale(1673.05 1085.75)">
<stop stop-color="#414141"/>
<stop offset="1"/>
</radialGradient>
<radialGradient id="paint1_radial" cx="0" cy="0" r="1" gradientUnits="userSpaceOnUse" gradientTransform="translate(327.501 277.017) rotate(20.3408) scale(1671.21 1077.21)">
<stop stop-color="#414141"/>
<stop offset="1"/>
</radialGradient>
<radialGradient id="paint2_radial" cx="0" cy="0" r="1" gradientUnits="userSpaceOnUse" gradientTransform="translate(274.501 274.564) rotate(20.175) scale(1669.43 1068.8)">
<stop stop-color="#414141"/>
<stop offset="1"/>
</radialGradient>
</defs>
</svg>
