<svg fill="none" height="113" viewBox="0 0 99 113" width="99" xmlns="http://www.w3.org/2000/svg"><g fill="#000"><path d="m49.2134.546875c-21.8257 0-39.59914 17.773425-39.59914 39.599225v45.0023h3.34144v-45.0023c0-19.9774 16.2804-36.25782 36.2577-36.25782 19.9774 0 36.2578 16.28042 36.2578 36.25782v45.0023h3.3415v-45.0023c0-21.8258-17.7735-39.599225-39.5993-39.599225z"/><path d="m27.7431 29.624v27.4422c0 7.3227 3.6969 13.7922 9.2422 17.6312v7.9626l-29.57496 8.6023c-4.40781 1.3508-7.3937384 5.4031-7.3937384 10.0247v11.588h3.3413984v-11.517c0-3.1996 2.06171-5.9012 5.04765-6.8254l31.99215-9.3133v-8.5312c.8531.3555 1.6352.7109 2.5594.9953.1422.0711.2844.0711.4266.1422.0711 0 .071 0 .1421.0711.1422 0 .2133.0711.3555.0711.0711 0 .1422.0711.2133.0711s.2133.0711.2844.0711.2132.0711.2843.0711.1422.071.2844.071c.0711 0 .2133.0711.2844.0711s.1422 0 .2133.0711c.1422 0 .2133.0711.3554.0711h.2133c.1422 0 .2133.0711.3555.0711h.2133c.1422 0 .2843 0 .3554.0711h.1422c.1422 0 .2844 0 .4266.0711h.1422.4265.1422.4266.1422.5687.5688.1422.4265.1422.4266.1422c.1422 0 .2843 0 .4265-.0711h.1422c.1422 0 .2844 0 .3555-.0711h.2133c.1422 0 .2132 0 .3554-.0711h.2133c.1422 0 .2133-.0711.3555-.0711.0711 0 .1422 0 .2132-.0711.0711 0 .2133-.0711.2844-.0711s.1422-.071.2844-.071c.0711 0 .2133-.0711.2844-.0711s.2133-.0711.2844-.0711c.071 0 .1422-.0711.2132-.0711.1422 0 .2133-.0711.3555-.0711.0711 0 .0711 0 .1422-.0711.1422-.0711.2844-.0711.4266-.1422.8531-.2844 1.7062-.5688 2.5593-.9953v7.3226h3.3414v-9.1711c5.6164-3.9101 9.2422-10.3796 9.2422-17.6312v-8.318zm39.6703 27.4422c0 8.1047-5.332 15.0008-12.7258 17.3469h-.071c-.2133.0711-.4977.1422-.711.2133h-.0711c-.2844.0711-.4976.1421-.782.2132-.0711 0-.1422 0-.2133 0-.2133.0711-.4265.0711-.6398.1422-.0711 0-.1422 0-.2133 0-.2844.0711-.4977.0711-.782.0711-.0711 0-.0711 0-.1422 0-.2133 0-.4266.0711-.711.0711-.0711 0-.1421 0-.2132 0-.2844 0-.5688 0-.8532 0s-.5687 0-.8531 0c-.0711 0-.1422 0-.2133 0-.2133 0-.4265 0-.7109-.0711-.0711 0-.0711 0-.1422 0-.2844 0-.4977-.0711-.782-.0711-.0711 0-.1422 0-.2133 0-.2133 0-.4266-.0711-.6399-.1422-.0711 0-.1421 0-.2132 0-.2844-.0711-.5688-.1421-.7821-.2132h-.0711c-.2843-.0711-.4976-.1422-.7109-.2133h-.0711c-7.3937-2.3461-12.7258-9.2422-12.7258-17.3469v-22.3945l36.4 16.1383z"/><path d="m30.0747 23.3931-1.3569 3.0534 39.6938 17.6404 1.357-3.0534z"/><path d="m80.7794 43.2031h-3.3414v68.2499h3.3414z"/><path d="m26.8902 69.8633h-3.3414v8.1758h3.3414z"/><path d="m69.7599 79.1055h-3.3414v32.3475h3.3414z"/><path d="m91.017 91.2627-4.9055-1.4219-.9242 3.1992 4.8343 1.4219c3.0571.9242 5.0477 3.6969 5.0477 6.8251v11.588h3.3414v-11.517c.0711-4.6922-2.9148-8.6734-7.3937-10.0953z"/></g></svg>