<svg fill="none" height="106" viewBox="0 0 88 106" width="88" xmlns="http://www.w3.org/2000/svg"><g fill="#000"><path d="m60.6665 9.15576-12.481 19.69864 2.6727 1.6934 12.481-19.6986z"/><path d="m55.1331 1.25769c-3.6914-2.34375-8.5547-1.230459-10.8985 2.46095l-32.3437 51.03516 2.6367 1.6992 32.3437-51.03515c1.4063-2.22656 4.336-2.87109 6.504-1.46484l2.2265 1.40625-32.8711 51.91404 2.6367 1.6993 34.5704-54.60944z"/><path d="m76.3194 23.7661-19.6382 12.5787 1.7067 2.6645 19.6382-12.5788z"/><path d="m85.2505 67.586c-3.5156-4.9219-10.3125-6.2696-15.4688-2.9883l-52.207 32.9883c-3.9258 2.461-9.08203 1.6406-12.07031-1.9336-3.10547-3.6914-2.8125-9.0821.58593-12.4805l1.46485-1.4063c.35156.293.70312.5274 1.05469.7618 1.99214 1.289 4.21874 1.875 6.44534 1.875 3.9843 0 7.9101-1.9922 10.2539-5.625 3.5742-5.625 1.875-13.125-3.75-16.6992-5.625-3.5743-13.12503-1.875-16.69925 3.75-1.69922 2.7539-2.28515 5.9765-1.58203 9.1406.35156 1.6406 1.05469 3.164 2.05078 4.5117l-1.46484 1.4648c-2.22656 2.168-3.515624 5.0977-3.632811 8.2032-.117188 3.1054.878901 6.0937 2.871091 8.4961 2.40234 2.9294 5.97656 4.4534 9.55076 4.4534 2.2852 0 4.5703-.645 6.6211-1.934l52.207-32.9882c3.75-2.3437 8.6719-1.4062 11.1915 2.168 2.6367 3.6914 1.8164 8.8476-1.875 11.5429l-5.8594 4.2774c-2.6367-2.5195-6.7969-2.9297-9.9024-.7617l-8.2031 5.6836 1.1719 1.6992-6.5039 4.5117 1.8164 2.5781 6.5039-4.5117 2.9883 4.3359-6.5039 4.5118 1.8164 2.578 6.5039-4.512 1.1719 1.7 8.2031-5.684c3.1055-2.168 4.2187-6.2109 2.7539-9.6094l5.918-4.3359c5.039-3.5156 6.2109-10.6641 2.5781-15.7617zm-77.69533-.0586c1.69922-2.6953 4.57033-4.1602 7.55863-4.1602 1.6406 0 3.2812.4688 4.7461 1.4063 4.1601 2.6367 5.3906 8.1445 2.7539 12.3046-2.6368 4.1602-8.1446 5.3907-12.3047 2.754-1.99221-1.2891-3.39846-3.2813-3.92581-5.5664-.52734-2.3438-.11718-4.6875 1.17188-6.7383zm64.68753 27.3047-5.625 3.8671-5.3907-7.7929 5.625-3.8672c2.168-1.4649 5.0977-.9375 6.5626 1.1719 1.4648 2.2265.9375 5.1562-1.1719 6.6211z"/><path d="m85.9534 31.9023-3.1055-4.8632-54.4336 34.8633 1.6992 2.6367 51.7969-33.1641 1.4063 2.2266c1.4062 2.1679.7617 5.1562-1.4063 6.5625l-50.918 32.5781 1.6993 2.6367 50.9179-32.5781c3.6329-2.3438 4.6875-7.207 2.3438-10.8985z"/></g></svg>