<svg fill="none" height="96" viewBox="0 0 97 96" width="97" xmlns="http://www.w3.org/2000/svg"><path d="m96.6335 24.6797-24.4336-24.433606-12.1875 12.187506-2.3438-2.3438-5.9179 5.918c-1.4649 1.4649-2.2266 3.457-2.0508 5.5078.5859 9.1407-2.5781 18.3399-8.6719 25.1367l-39.49218 43.5352c-1.23047 1.3477-1.171879 3.457.11718 4.7461.64454.6445 1.52344.9961 2.40235.9961.82031 0 1.64062-.293 2.28515-.8789l43.5352-39.4336c6.8554-6.1524 16.0547-9.3164 25.1953-8.6719 2.0508.1172 4.0429-.6445 5.5078-2.0508l5.918-5.9179-2.1094-2.1094zm-24.4336-20.33204 20.3906 20.39064-10.1367 10.1367-2.4609-2.4609 3.0468-3.0469-2.0508-2.0508-3.0468 3.0469-2.461-2.461 4.3946-4.3945-2.0508-2.0508-4.3946 4.3946-2.4609-2.461 3.0469-3.0468-2.0508-2.0508-3.0469 3.0468-2.4609-2.4609 4.3945-4.3945-2.0508-2.0508-4.3945 4.3945-2.4609-2.4609zm6.3867 38.55464c-.8789.879-2.1094 1.3477-3.3398 1.2305-9.9024-.6445-19.8633 2.7539-27.3047 9.4336l-43.53518 39.4336c-.23438.2344-.58594.1758-.76172 0-.23438-.2344-.23438-.5859 0-.7617l39.4922-43.5352c6.6211-7.3828 10.0781-17.3437 9.4336-27.2461-.0586-1.2304.3515-2.4609 1.2304-3.3398l3.8672-3.8672 24.8438 24.8438z" fill="#000"/></svg>