<svg fill="none" height="95" viewBox="0 0 77 95" width="77" xmlns="http://www.w3.org/2000/svg"><g fill="#000"><path d="m34.8359 7.80078c-3.8085-4.92187-8.9062-7.67578-14.2968-7.67578-5.4493 0-10.54691 2.69532-14.29691 7.67578-3.69141 4.80472-5.74219 11.25002-5.74219 18.04692 0 6.7968 2.05078 13.1835 5.74219 18.0468 2.22656 2.9297 4.92191 5.0391 7.85151 6.3282v10.8398l-1.6992 24.375c-.1757 2.3438.6446 4.6289 2.2266 6.3281s3.8086 2.6953 6.1523 2.6953c2.3438 0 4.5704-.9961 6.211-2.6953 1.582-1.6992 2.4023-4.0429 2.2265-6.3867l-1.875-24.3164v-11.0742c2.8125-1.2891 5.3321-3.3399 7.5-6.1524 3.6915-4.8046 5.7422-11.25 5.7422-18.0468 0-6.7969-2.0507-13.1836-5.7422-17.98832zm-9.9609 82.03122c-1.0547 1.1719-2.5195 1.8164-4.1016 1.8164-1.582 0-3.0468-.6445-4.1015-1.8164-1.0547-1.1718-1.5821-2.6367-1.5235-4.2187l1.6407-23.1446h7.8515l1.7578 23.086c.1172 1.6406-.4101 3.1641-1.5234 4.2773zm-.3516-30.1171h-7.6757v-8.6133c.7617.1757 1.582.2929 2.4023.3515h.4688.0585.4102.0586.2344.1757.0586.4102c1.1133-.0586 2.2266-.2344 3.3398-.4687zm1.1133-12.0704-.2344.1172c-.7617.293-1.582.5274-2.4023.7031h-.0586c-.1758.0586-.3516.0586-.5273.1172h-.0586c-.1758 0-.4102.0586-.586.0586h-.0586c-.1757 0-.2929 0-.4687.0586-.0586 0-.1172 0-.1172 0-.1758 0-.3516 0-.5859 0-.1758 0-.3516 0-.5274 0-.0586 0-.1172 0-.1172 0-.1172 0-.2929 0-.4101 0-.0586 0-.1172 0-.1172 0-.3516-.0586-.7031-.0586-1.0547-.1172h-.0586c-.1758-.0586-.3516-.0586-.5273-.1172h-.0586c-.586-.1171-1.1133-.2929-1.6407-.4687l-.1757-.0586c-7.20707-2.7539-12.5391-11.543-12.5391-22.0313 0-12.5976 7.7344-22.91011 17.2852-22.91011 9.5507 0 17.2851 10.25391 17.2851 22.91011-.1172 10.1368-5.2148 18.8672-12.2461 21.7383z"/><path d="m76.7305 26.1992h-7.9102c-.1172-1.6406-.4102-3.2812-.7617-4.8633l7.5-1.289-.4688-2.7539-7.7343 1.3476c-.4102-1.3476-.9375-2.6953-1.5235-3.9258l7.5586-1.9921-.7031-2.6954-8.0859 2.1094.0585.2344c-.996-1.6992-2.1093-3.22266-3.3398-4.45313l6.7969-1.46484-.586-2.75391-8.8476 1.875v.05859c-.5274-.35156-1.0547-.70312-1.6406-.9375-.586-2.63671-2.9297-4.57031-5.7422-4.57031-3.2227 0-5.8594 2.63672-5.8594 5.85938v40.60542 15.8789 26.1329c0 3.2226 2.6367 5.8593 5.8594 5.8593 3.2226 0 5.8594-2.6367 5.8594-5.8593v-26.0743-10.2539c1.1718-.8203 2.3437-1.8164 3.457-2.9296l8.6133 1.9921.6445-2.7539-7.1484-1.6406c.9961-1.2891 1.9335-2.6953 2.7539-4.1601l7.9687 2.1093.7031-2.6953-7.3828-1.9336c.5274-1.2304.9375-2.4609 1.2891-3.75l7.6172 1.2891.4687-2.7539-7.4414-1.2891c.2344-1.3476.3516-2.7539.3516-4.2187 0-.1758 0-.293 0-.4688h7.7344zm-22.3243 62.4024c0 1.6992-1.4062 3.1054-3.1054 3.1054s-3.1055-1.4062-3.1055-3.1054v-26.0743h6.2109zm0-28.8867h-6.1523v-10.254h6.1523zm0-13.0665h-6.1523v-40.66402c0-1.69922 1.4062-3.10548 3.1055-3.10548 1.6992 0 3.1054 1.40626 3.1054 3.10548zm2.8125 2.0508v-2.0508-38.61324c5.2149 3.57424 8.9649 12.30464 8.9649 21.38674 0 7.9101-4.2188 15.2343-8.9649 19.2773z"/></g></svg>