<svg fill="none" height="103" viewBox="0 0 80 103" width="80" xmlns="http://www.w3.org/2000/svg"><g fill="#000"><path d="m44.6875.0234375c-19.2187 0-34.80468 15.6445625-34.80468 34.8046625v12.4805c0 13.7695 10.95698 25.0781 24.72658 25.664v1.5821l-26.89456 7.7929c-4.04297 1.2305-6.738278 4.8633-6.738278 9.0821v10.5473h2.988288v-10.4887c0-2.8711 1.875-5.3907 4.57031-6.211l29.00394-8.4375v-7.7343c2.4609 1.1132 5.2148 1.7578 8.0859 1.7578 2.8125 0 5.5664-.586 8.0859-1.7578v32.8715h2.9883v-34.5708-2.0507-18.3985-.1172c-2.168-11.3672-12.1289-19.5703-23.6719-19.5703h-6.914v24.1407c0 6.6211 3.3398 12.4804 8.3789 16.0546v2.6368c-12.0703-.6446-21.7383-10.5469-21.7383-22.6758v-12.4805c0-17.5195 14.2969-31.81639 31.8164-31.81639s31.8164 14.29689 31.8164 31.81639v64.1602h-.1172v2.9885h.1172 2.9297.1172v-67.2659c.0586-19.1601-15.5274-34.8046625-34.7461-34.8046625zm-15.4687 51.3281625v-21.0938h3.9257c10.0782 0 18.75 7.1485 20.6836 16.9922v18.1055.3515c-2.4609 1.4063-5.2734 2.1094-8.0859 2.1094-9.1406.0586-16.5234-7.3828-16.5234-16.4648z"/><path d="m72.6367 44.5547h-2.7539v51.9726h2.7539z"/><path d="m64.1406 55.3945h-2.7539v40.7227h2.7539z"/></g></svg>