<svg fill="none" height="109" viewBox="0 0 109 109" width="109" xmlns="http://www.w3.org/2000/svg"><path clip-rule="evenodd" d="m47.7707 63.4517c.1519.1412.3607.3018.4495.3722.314.2494.6333.5035.8894.8145.1026.1245.1663.251.2054.4076.2065.8254-.3459 1.5094-.7716 2.1467-.0425.0636-.1299.1957-.1993.3207.5298.2096 1.4573.4287 1.7997.5086.4745.1108.8004.5221.8004 1.0099 0 1.3625-.0004 2.9685.257 4.3092.1087.5669.2719 1.133.6764 1.5621.0868.092.1812.1764.2795.256.3106.251 1.26.1114 1.6191.0517.6015-.0999 1.2007-.2531 1.8043-.3302.2759-.0353.5986-.1302.8689-.2012.5025-.1321 1.0033-.2665 1.5091-.3866 1.3135-.312 2.6679-.541 4.0214-.5316 2.2949.0158 4.3961.738 5.8134 2.6433.0336.0453.0595.0863.0857.1362l.7351 1.3975c.0116.0221.0209.0413.031.0641.699 1.584 1.3559 3.1928 1.8418 4.8568.8417 2.8827 1.3621 6.6301-1.0235 8.9446-.832.8845-1.6358 1.8362-2.4413 2.7469-1.3813 1.5619-2.7704 3.1172-4.1839 4.6501-1.4342 1.5552-2.9017 3.1152-4.4364 4.5712-.7929.753-2.3716 2.249-3.432 2.532-.3551.095-.7054.007-.9741-.244l-3.0124-2.818c-2.6903-2.298-6.0437-5.9139-7.9155-9.3351.0042.4075-.0533.7867-.1924 1.1234-.2081.5045-.7678.7606-1.2849.5876-1.2987-.4343-2.6052-1.2904-3.6973-2.1079-.9836-.7362-1.929-1.5478-2.8197-2.3945-.4803-.4568-1.1817-1.1137-1.56-1.6556-2.3881-3.4218-3.6717-7.0419-3.4547-11.2363.076-1.4711.3299-2.8932.633-4.331.0987-.4689.208-.9496.3077-1.4334-.62.2952-1.2454.5788-1.8683.8499-1.1464.4991-2.4854 1.0622-3.7044 1.3342-.0361.0081-.0673.0133-.104.0177-7.8226.9235-15.0148-4.1605-17.7453-11.3784-.29117-.7698-.6134-1.666-.73565-2.4821-.10618-.7096-.03968-1.4938.6319-1.915.75078-.4711 1.62264-.0602 2.29516.3434.65559.3932 1.28179.8605 1.91269 1.2939.496.3408 1.0375.7067 1.5832.9609 2.4623 1.147 5.1716 1.7461 7.8866 1.7575 3.6307.0152 5.9057-1.2631 8.3921-3.3447-1.2556.5704-2.7015 1.1252-4.0709 1.2978-5.2388.6602-10.4107-.4488-14.5-3.9078-2.98364-2.5239-4.97376-5.9529-6.03531-9.6917-1.1897-4.1898-1.20083-8.6681-.37014-12.9256.08626-.4422.4277-.7659.87335-.8281.44574-.0622.86238.1556 1.06619.5574.35037.6908.6682 1.3971 1.01787 2.0854.46456.9141 1.08893 1.7996 1.65802 2.6269l2.84852 3.9839c1.2882 1.3595 3.4435 2.9899 5.2434 3.4828 2.7077.7417 5.9059.7186 8.5762-.2402-4.9016.3948-10.0057-1.2488-13.5634-4.6801-1.0582-1.0207-1.9916-2.1689-2.79403-3.4007-1.76309-2.7062-2.93992-5.8852-3.35719-9.0896-.379-2.9113-.14947-6.0706 1.12515-8.7501 3.11267-6.5445 8.17317-10.3109 15.16917-11.96561 3.4972-.82726 7.8041-.68945 11.3302-.10515 4.2398.70249 9.6647 2.45396 12.1831 6.20446.2213.3296.2395.7277.0491 1.0762-.1903.3485-.535.5479-.9314.5391-1.8917-.0422-3.8078-.2988-5.698-.4379-2.0343-.15-4.1141-.2022-6.1344.1236-5.3837.8681-10.7979 3.3122-10.9727 9.5211-.062 2.1981 1.155 5.0555 2.8672 6.458 1.603 1.3132 3.4035 2.0526 5.4911 1.7234 3.2456-.5121 6.2782-3.4519 8.4879-5.7257 1.0861-1.1176 2.0814-2.4008 3.0255-3.6402 1.163-1.5265 2.2912-3.0798 3.4471-4.612 1.3146-1.7427 2.6716-3.4877 4.1516-5.0932 1.228-1.3322 2.7024-2.7505 4.279-3.6008 1.4323-.8281 2.8507-1.68108 4.2871-2.50158 1.2254-.70005 2.4665-1.37129 3.7572-1.94413 3.4128-1.51475 6.8386-2.11248 10.5375-2.4444.0324-.00291.0601-.00417.0925-.00417 9.0623 0 14.5846 1.15024 21.9211 6.76088 1.0792.8252 2.0485 1.7031 2.9319 2.7372.8425.9861 1.5807 2.0653 2.3176 3.1314 3.6394 5.2658 5.9134 12.7629 6.4864 19.1036.003.0327.004.0606.004.0935 0 2.5596-.067 5.1129-.366 7.6571-.316 2.6872-.889 5.2895-1.606 7.8958-.72 2.6179-1.712 5.043-2.847 7.5016-.538 1.1654-1.249 2.3441-1.9135 3.4423-.9207 1.5221-1.8809 3.0237-2.8575 4.5103-1.1062 1.6845-2.2382 3.3581-3.4069 5-.4511.6335-.9087 1.2647-1.3818 1.8818-.3116.4065-.6464.8419-1.0026 1.2095-1.2281 1.2673-2.542 2.505-3.8491 3.6892-1.0321.9354-3.6751 3.352-4.975 3.6996-.551.1472-1.1205-.1826-1.2676-.7344-.3748-1.4053-1.2822-2.2772-2.0033-3.4846-.9729-1.6293-1.8992-3.4016-2.4342-5.2304-.3704-1.2668-.5067-2.4436-.5194-3.7575-.008-.8343.0212-1.6665-.007-2.5011-.0344-1.0145-.153-1.9989-.3593-2.9931-.2884-1.3892-.497-2.7767-.6669-4.1846-.1324-1.0967-.2417-2.2014-.4239-3.291-.2598-1.5533-.6757-2.9371-1.3339-4.3706-.9894-2.1552-2.387-4.2232-3.7864-6.129-.8139-1.1083-2.6213-2.2987-3.7553-3.0967-.6531-.4597-1.3074-.9212-1.9383-1.4114l-8.2803-5.4955c-1.9723-1.2559-3.2478-2.975-4.0779-5.139-.0392-.102-.0768-.2042-.1135-.3064-.2935.8339-.6354 1.6525-.9043 2.4931-.1892.5909-.3341 1.186-.395 1.8047-.1381 1.4001-.1431 2.8404.2175 4.2096.244.9265.6534 1.7301.9808 2.6185.4653 1.2626.5663 2.3744.3636 3.7092-.318 2.0949-1.3282 4.3867-2.2379 6.2833-.0341.0709-.0697.1284-.1182.1903-.5763.7369-1.2411 1.4362-1.878 2.1219-.3715.3998-1.6833 1.7708-2.0789 2.416.4876.8377 1.0748 1.4723 1.8318 2.1096.6753.5684 1.4869 1.1248 1.7962 1.9905.4186 1.1724-.2664 2.3718-.9753 3.3287zm24.9099-58.4268c8.7926 0 14.0841 1.03567 21.2927 6.548 2.3748 1.8164 3.3532 3.2133 5.0265 5.6346 3.2792 4.7446 5.7042 11.9486 6.3072 18.607 0 5.8408-.358 9.538-1.936 15.2776-.771 2.8041-1.768 5.1313-2.788 7.3419-1.5645 3.3885-8.7391 14.0783-10.3658 15.7568-1.5646 1.6142-6.8876 6.7186-8.3483 7.109-.4421-1.6582-1.3446-2.4592-2.115-3.7492-4.3559-7.2945-1.9991-8.3998-3.1949-14.161-1.5503-7.4687.156-9.463-6.3906-18.3785-1.1493-1.5649-3.8745-3.1399-5.9234-4.7364l-8.3291-5.5279c-4.0927-2.6059-4.0385-6.9606-4.9419-8.3862-.2838 3.4159-1.8682 5.3028-2.1351 8.0119-.8411 8.5324 4.5323 5.8181-.5788 16.4734-1.4036 1.795-4.6852 4.76-4.211 5.3847 2.1534 4.0749 5.6638 3.0991 2.5728 7.0163-.2063.7837 1.1258 1.3674 1.6887 2.0512.1619.6474-1.3473 1.7798-1.0653 2.667.0491.3618 1.2625.7399 2.6634 1.0669 0 4.729.4225 5.9839 1.598 6.9339.9882.7988 2.9887.0987 4.2048-.0566 1.5984-.2041 8.1998-2.9873 11.2513 1.1148l.7351 1.3975c1.579 3.5781 4.0586 9.7432 1.0289 12.653-1.514 1.6074-11.6899 13.6034-14.0241 14.2284l-3.0297-2.834c-2.999-2.5586-7.0298-7.0109-8.4774-10.7134l-.4478-1.1517c-1.4565-3.8569-2.3782-9.9784-1.535-13.9648-2.4816 2.5435-2.7227 7.823-1.4353 11.0718.6757 1.7051 2.7764 5.3838 2.1411 6.9237-2.9827-.9975-7.0814-5.0881-7.5561-5.7684-5.6615-8.1116-2.3799-14.047-2.0319-18.234-1.5035.7966-5.2174 2.5727-7.1288 2.9994-6.9199.8169-13.9281-3.5065-16.65559-10.716-2.3394-6.1841 1.61809-1.7325 4.28219-.4914 2.2986 1.0708 5.1385 1.8409 8.319 1.8542 4.5674.0193 7.1812-1.8689 10.2999-4.6649 1.5795-1.416 2.7119-3.1319 2.9616-3.6173.0103-.0205-5.5062 3.7211-9.0653 4.1696-14.3769 1.8119-22.60839-10.6984-19.75975-25.2975 1.18703 2.3405.85626 2.0834 2.75729 4.8462l2.88916 4.041c1.448 1.5456 3.7893 3.2795 5.7715 3.8223 3.2404.8875 6.7861.6871 9.5303-.3888 2.1881-1.0575 5.1554-1.9661 6.6107-3.9549-.5248.3264-2.7015 1.2683-5.5798 1.8252-5.4831 1.0606-11.0367-.7536-14.5568-4.1488-5.52069-5.3247-7.49865-14.3942-4.80966-20.0477 2.96056-6.2243 7.74036-9.8102 14.47236-11.40241 6.3405-1.49975 18.5928-.02513 22.416 5.66881-3.2825-.0731-7.7644-.9875-12.02-.3012-5.9597.9609-11.6538 3.7901-11.8432 10.5155-.0798 2.835 1.5281 5.8822 3.2466 7.2899 6.0275 4.9375 11.5735-.1684 15.3769-4.0818 4.0829-4.2015 9.7473-14.1097 14.6788-16.7713 6.8541-3.96265 9.3339-5.96378 18.1566-6.7554z" fill="#000" fill-rule="evenodd" stroke="#000" stroke-miterlimit="22.9256"/></svg>